<svg xmlns="http://www.w3.org/2000/svg" xmlns:xlink="http://www.w3.org/1999/xlink" width="375" height="293.549" viewBox="0 0 375 293.549">
  <defs>
    <linearGradient id="linear-gradient" x1="0.623" y1="0.242" x2="0.753" y2="0.71" gradientUnits="objectBoundingBox">
      <stop offset="0" stop-color="#f8159e"/>
      <stop offset="0.485" stop-color="#ec401b"/>
      <stop offset="0.816" stop-color="#f06e30"/>
      <stop offset="1" stop-color="#e7ab48"/>
    </linearGradient>
  </defs>
  <path id="Path_31826" data-name="Path 31826" d="M-4485.959,6754.959s30.65-6.163,61.343,4.327,31.676,16.874,66.279,29.863c17.232,6.469,25.618,7.747,34.146,7.958,7.787.2,25.79-1.541,35.145-3.872,18.635-4.645,36.627-15.737,58.66-31.476,8.229-5.266,29.815-25.827,37.486-32.623,12.627-11.187,13.3-14.272,33.193-30.045,31.529-25,48.749-16.156,48.749-16.156v165.473s-12.554,1.625-32.15-4.529-38.825-13.678-57.229-15.166-35.218-3.134-68.506,5.031-58.673,26.171-58.673,26.171-18.354,11.436-38.577,33.795-30.414,42.342-35.5,47.729-21.742,25.545-42.385,31.072-41.976,0-41.976,0Z" transform="translate(4485.959 -6681.419)" fill="url(#linear-gradient)"/>
</svg>
