<svg width="70" height="70" viewBox="0 0 70 70" fill="none" xmlns="http://www.w3.org/2000/svg">
    <path d="M35 0C15.75 0 0 15.75 0 35C0 54.25 15.75 70 35 70C54.25 70 70 54.25 70 35C70 15.75 54.25 0 35 0ZM29.4142 51.0858C28.6332 51.8668 27.3668 51.8668 26.5858 51.0858L11.9142 36.4142C11.1332 35.6332 11.1332 34.3668 11.9142 33.5858L14.0228 31.4772C14.803 30.697 16.0678 30.6961 16.8492 31.4753L26.5858 41.1847C27.3672 41.9639 28.632 41.963 29.4122 41.1828L53.1458 17.4492C53.9288 16.6662 55.199 16.6685 55.9792 17.4542L58.0958 19.5858C58.8721 20.3677 58.8699 21.6301 58.0908 22.4092L29.4142 51.0858Z" fill="url(#paint0_linear_98_558)"/>
    <defs>
        <linearGradient id="paint0_linear_98_558" x1="35" y1="1.22569e-06" x2="35" y2="70" gradientUnits="userSpaceOnUse">
            <stop stop-color="#02ADF3"/>
            <stop offset="1" stop-color="#3688F4"/>
        </linearGradient>
    </defs>
</svg>
