<svg xmlns="http://www.w3.org/2000/svg" xmlns:xlink="http://www.w3.org/1999/xlink" width="115" height="115.001" viewBox="0 0 115 115.001">
  <defs>
    <clipPath id="clip-path">
      <path id="Path_995" data-name="Path 995" d="M174.207,369.328a11.79,11.79,0,0,1-5.671-1.357,10.076,10.076,0,0,1-3.955-3.737,10.745,10.745,0,0,1,0-10.708,10.083,10.083,0,0,1,3.955-3.739,12.518,12.518,0,0,1,11.329,0,10.306,10.306,0,0,1,0,18.184,11.712,11.712,0,0,1-5.658,1.357m40.928-9.97a.8.8,0,0,1,.794-.8h2.682a.8.8,0,0,1,.795.8v6.889a1,1,0,0,1-.43.823,12.439,12.439,0,0,1-3.38,1.594,14.8,14.8,0,0,1-4.359.665,11.809,11.809,0,0,1-5.656-1.342,9.987,9.987,0,0,1-3.939-3.723,10.854,10.854,0,0,1,0-10.766,9.926,9.926,0,0,1,3.967-3.723,12.044,12.044,0,0,1,5.716-1.34,12.509,12.509,0,0,1,4.821.893,9.661,9.661,0,0,1,3.067,1.993.791.791,0,0,1-.021,1.143c-.538.5-1.336,1.235-1.861,1.723a.8.8,0,0,1-1.069.01,6.847,6.847,0,0,0-4.7-1.782,7.112,7.112,0,0,0-3.435.809,5.788,5.788,0,0,0-2.336,2.28,7.176,7.176,0,0,0,0,6.724,5.927,5.927,0,0,0,2.323,2.295,6.881,6.881,0,0,0,3.391.822,7.779,7.779,0,0,0,3.034-.581,1,1,0,0,0,.6-.913c.006-1.081.006-3.3.006-4.5m-84.254,1.638a52.981,52.981,0,0,0,.755,6.547,1,1,0,0,1-.987,1.18h-2.236a1,1,0,0,1-.987-.829,58.146,58.146,0,0,1-.2-18.258,1,1,0,0,1,.987-.851h2.228a1,1,0,0,1,.987,1.162,53.435,53.435,0,0,0-.613,6.819h11a42.244,42.244,0,0,1,.851-7.183,1,1,0,0,1,.979-.794h2.252a1,1,0,0,1,.977,1.22,38.122,38.122,0,0,0,.284,17.466,1,1,0,0,1-.968,1.249h-2.266a1,1,0,0,1-.973-.765,42.248,42.248,0,0,1-1.059-6.962Zm109.083-12.21a1.03,1.03,0,0,1,1.017.875,58.116,58.116,0,0,1-.2,18.212,1.029,1.029,0,0,1-1.011.851H237.59a1.029,1.029,0,0,1-1.011-1.211,53.743,53.743,0,0,0,.2-17.54,1.026,1.026,0,0,1,1.015-1.189Zm-65.758,16.559a6.407,6.407,0,0,0,3.233-.822,5.9,5.9,0,0,0,2.265-2.295,7.226,7.226,0,0,0,0-6.7,5.9,5.9,0,0,0-2.265-2.294,6.762,6.762,0,0,0-6.465,0,5.915,5.915,0,0,0-2.265,2.294,7.227,7.227,0,0,0,0,6.7,5.915,5.915,0,0,0,2.265,2.295,6.414,6.414,0,0,0,3.233.822" transform="translate(-126.604 -348.432)" fill="none"/>
    </clipPath>
  </defs>
  <g id="Group_13897" data-name="Group 13897" transform="translate(-88.981 -306.981)">
    <path id="Path_994" data-name="Path 994" d="M246.847,194.663a1.028,1.028,0,0,1,.979,1.342,57.512,57.512,0,0,1-109.3-.035,1,1,0,0,1,.951-1.306H141.8a1,1,0,0,1,.947.68,53.306,53.306,0,0,0,100.863,0,1.029,1.029,0,0,1,.968-.683h2.265M139.09,162.719a1,1,0,0,1-.959-1.287,57.512,57.512,0,0,1,110.08-.034,1.026,1.026,0,0,1-.983,1.319h-2.255a1.029,1.029,0,0,1-.982-.72,53.305,53.305,0,0,0-101.636,0,1,1,0,0,1-.959.716h-2.3" transform="translate(-46.699 186.396)" fill="#fff" fill-rule="evenodd"/>
    <g id="Group_1194" data-name="Group 1194" transform="translate(88.981 354.763)">
      <g id="Group_1193" data-name="Group 1193" clip-path="url(#clip-path)">
        <rect id="Rectangle_272" data-name="Rectangle 272" width="115.018" height="20.9" transform="translate(-0.009 -0.002)" fill="#fff"/>
      </g>
    </g>
    <path id="Path_31757" data-name="Path 31757" d="M33.919,71.5a46.708,46.708,0,0,1-20.838-8.393C4.356,56.757.02,46.508.02,46.508s-.2-1.4.695-1.861a2.676,2.676,0,0,1,2.562-.133c1.079.4,1.833,1.994,1.833,1.994a46.241,46.241,0,0,0,9.382,12.015c5.117,4.505,12.251,7.317,19.428,8.49,6.74,1.1,15.517-.752,21.37-3.386,6.878-3.094,9.476-6.36,9.476-6.36s1.423-1.447,2.449-.971a2.944,2.944,0,0,1,1.856,1.851,1.8,1.8,0,0,1-.512,1.793S61.792,66.426,53.322,69.4a44.727,44.727,0,0,1-14.614,2.325C36.543,71.721,34.86,71.586,33.919,71.5ZM1.039,12.616s-1.329-.235.392-3.3A40.281,40.281,0,0,1,6.988,1.23C9.111-1.012,10.488.5,10.488.5a5.6,5.6,0,0,1,.871,1.264,2.181,2.181,0,0,1-.154,1.591S9.087,5.734,7.558,7.925,5.7,11,5.076,11.812a2.12,2.12,0,0,1-1.9,1.016,3.916,3.916,0,0,1-.478.028A6.55,6.55,0,0,1,1.039,12.616Z" transform="translate(106.958 335.848)" fill="#fff"/>
  </g>
</svg>
