<svg xmlns="http://www.w3.org/2000/svg" width="313.601" height="314.97" viewBox="0 0 313.601 314.97">
  <g id="Group_14080" data-name="Group 14080" transform="translate(-28.746 -169.58)">
    <g id="Group_13988" data-name="Group 13988" transform="translate(65 203.337)">
      <g id="Group_13953" data-name="Group 13953" transform="translate(11.215 11.157)">
        <path id="Path_31789" data-name="Path 31789" d="M-4687.982,6599.71s62.838-3.91,97.469,64.533c29.722,70.9-17,119.443-17,119.443s-2.51.782-3.47,0-.368-3.132-.368-3.132,43.78-41.475,16.235-114.5c-31.9-64.951-92.865-62.089-92.865-62.089s-1.332-1.274-1.332-2.338S-4687.982,6599.71-4687.982,6599.71Z" transform="translate(4803.191 -6599.676)" fill="#ff9842"/>
        <path id="Path_31790" data-name="Path 31790" d="M-4718.756,6775.433s-2.472-.418-3.319.429,0,3.276,0,3.276,26.123,10.336,64.7,3.556c29-6.13,51.309-28.4,51.309-28.4s.887-2.542,0-3.388-3.55,0-3.55,0-21.174,21.225-48.442,27.356S-4718.756,6775.433-4718.756,6775.433Z" transform="translate(4795.278 -6563.65)" fill="#40ffff"/>
        <path id="Path_31791" data-name="Path 31791" d="M-4774.165,6719.868c-.859.5-.955,2.579-.955,2.579a99.552,99.552,0,0,0,20.431,33.32c14.488,15.275,37.521,27.782,37.521,27.782s2.65.453,3.532-.479-1.049-3.15-1.049-3.15-21.948-11.7-36.459-26.543a92.719,92.719,0,0,1-20.192-32.418S-4773.306,6719.367-4774.165,6719.868Z" transform="translate(4782.7 -6570.997)" fill="#ffff73"/>
        <path id="Path_31792" data-name="Path 31792" d="M-4765.907,6647.2c-.992-.31-2.854.868-2.854.868s-10.331,20.7-12.161,41.456,4.838,41.577,4.838,41.577,1.366,1.985,2.358,1.738,1.613-2.73,1.613-2.73-6.8-20.386-4.965-40.584,12.288-40.213,12.288-40.213S-4764.914,6647.512-4765.907,6647.2Z" transform="translate(4781.239 -6588.338)" fill="#b641fb"/>
        <path id="Path_31793" data-name="Path 31793" d="M-4767.353,6649.351s-.134,1.576.7,2.227,2.647-.737,2.647-.737,8.75-13.777,19.982-23.83a108.466,108.466,0,0,1,24.946-16.135s.984-1.312.333-2.244-2.938-.61-2.938-.61-14.646,7.291-26.064,17.625S-4767.353,6649.351-4767.353,6649.351Z" transform="translate(4784.552 -6597.694)" fill="#ff449a"/>
        <path id="Path_31794" data-name="Path 31794" d="M-4722.135,6606.682s-1.1,1.567-.719,2.26,1.979.3,1.979.3a53.114,53.114,0,0,1,8.14-3.359,64.243,64.243,0,0,1,7.9-1.768s1.4-.769,1.086-1.652-2.108-1.067-2.108-1.067a47.977,47.977,0,0,0-8.4,1.909A62.842,62.842,0,0,0-4722.135,6606.682Z" transform="translate(4795.162 -6599.263)" fill="#449eff"/>
        <path id="Path_31795" data-name="Path 31795" d="M.9.641A29.079,29.079,0,0,1,6.509,0a29.718,29.718,0,0,1,5.65.641,1.821,1.821,0,0,1,.479,1.337c-.12.692-1.306,1.015-1.306,1.015a38.261,38.261,0,0,0-4.823-.348,36.029,36.029,0,0,0-4.737.348S.273,2.946.034,2.254.9.641.9.641Z" transform="translate(97.215 0.587) rotate(-3)" fill="#fff"/>
      </g>
    </g>
    <path id="Path_31812" data-name="Path 31812" d="M-2910.074,7638.171c19.646-47.178,40.094-51.854,83.931-64.685s82.861,11.226,82.861,11.226,50.785,28.466,55.062,75.912,5.614,71.1-25.66,104.78-52.256,44.638-96.226,40.093-56.4-12.162-83.4-47.044S-2929.72,7685.348-2910.074,7638.171Z" transform="translate(2990.19 -7360.73)" fill="none" stroke="#fff" stroke-width="1" opacity="0.4"/>
    <path id="Path_31813" data-name="Path 31813" d="M10.988,71.528c20.529-49.3,41.9-54.185,87.7-67.591s86.585,11.731,86.585,11.731,53.068,29.745,57.537,79.323,5.865,74.3-26.814,109.489-54.6,46.645-100.551,41.9S56.518,233.666,28.3,197.217-9.542,120.827,10.988,71.528Z" transform="matrix(0.946, 0.326, -0.326, 0.946, 109.886, 170.262)" fill="none" stroke="#fff" stroke-width="1" opacity="0.4"/>
  </g>
</svg>
