<svg width="83" height="83" viewBox="0 0 83 83" fill="none" xmlns="http://www.w3.org/2000/svg">
<mask id="path-1-inside-1_1_649" fill="white">
<path d="M31.9172 21.5123C34.0222 21.5123 35.7349 19.9413 35.7349 18.0106C35.7349 16.0798 34.0222 14.5089 31.9172 14.5089C29.8122 14.5089 28.0995 16.0798 28.0995 18.0106C28.0995 19.9413 29.8122 21.5123 31.9172 21.5123ZM31.9172 16.4629C32.8472 16.4629 33.6036 17.1567 33.6036 18.0097C33.6036 18.8628 32.8472 19.5566 31.9172 19.5566C30.9872 19.5566 30.2308 18.8628 30.2308 18.0097C30.2308 17.1567 30.9872 16.4629 31.9172 16.4629ZM32.5422 23.2322V27.1316C32.5422 27.6713 33.019 28.1086 33.6074 28.1086H43.1177C43.7062 28.1086 44.1829 27.6713 44.1829 27.1316V23.2322C44.1829 22.6924 43.7062 22.2552 43.1177 22.2552H33.6074C33.019 22.2552 32.5422 22.6924 32.5422 23.2322ZM42.0526 25.1819C42.0526 25.7191 41.6171 26.1546 41.0799 26.1546H40.4014C39.8641 26.1546 39.4287 25.7191 39.4287 25.1819C39.4287 24.6447 39.8641 24.2092 40.4014 24.2092H41.0799C41.6171 24.2092 42.0526 24.6447 42.0526 25.1819ZM34.6735 25.1819C34.6735 24.6447 35.109 24.2092 35.6462 24.2092H36.3247C36.8619 24.2092 37.2974 24.6447 37.2974 25.1819C37.2974 25.7191 36.8619 26.1546 36.3247 26.1546H35.6462C35.109 26.1546 34.6735 25.7191 34.6735 25.1819ZM13.1972 62.1883C13.1975 62.1879 13.1981 62.1878 13.1984 62.1882C13.5993 62.5825 13.5766 63.2 13.147 63.5691C12.9415 63.7455 12.6806 63.8325 12.4197 63.8325C12.1354 63.8325 11.851 63.7283 11.6408 63.5226C4.57044 56.5863 0.676758 47.5342 0.676758 38.0327C0.676758 29.5056 3.72863 21.4787 9.50111 14.8187C14.5601 8.9818 21.4725 4.63772 29.1687 2.41351C29.2166 2.39967 29.2171 2.33175 29.1694 2.31741C28.6101 2.15042 28.3032 1.59865 28.4853 1.08561C28.6673 0.572578 29.2679 0.291959 29.8282 0.458092L33.4694 1.54356C33.8101 1.64513 34.0719 1.89648 34.1676 2.21326C34.2624 2.53003 34.178 2.86918 33.9424 3.11623L31.3879 5.79244C31.1768 6.01281 30.8821 6.12557 30.5855 6.12557C30.3368 6.12557 30.0863 6.04552 29.8845 5.88369C29.4415 5.52818 29.3974 4.91099 29.785 4.50469C29.8665 4.41942 29.7824 4.28242 29.6692 4.31533C13.7273 8.9475 2.80707 22.4864 2.80707 38.0344C2.80707 47.0372 6.49684 55.6156 13.1961 62.1885C13.1964 62.1889 13.197 62.1888 13.1972 62.1883ZM71.4897 26.7459C71.4901 26.7459 71.4903 26.7457 71.4905 26.7455C71.7634 26.1482 71.9051 25.5045 71.9051 24.841C71.9051 22.8572 70.6498 21.1444 68.7934 20.3609C68.4928 20.2341 68.3014 19.9275 68.3014 19.6013C68.3014 17.3211 66.279 15.4652 63.7921 15.4652C61.3051 15.4652 59.2827 17.3202 59.2827 19.6013C59.2827 19.9279 59.0917 20.2339 58.7908 20.361C56.935 21.1445 55.6791 22.8573 55.6791 24.841C55.6791 25.9475 55.2953 27.1273 54.5449 27.9404C53.6992 28.8567 53.2156 30.0053 53.2156 31.2358C53.2156 34.1789 56.0338 36.5728 59.4977 36.5728C59.7557 36.5728 60.0117 36.5592 60.2645 36.5326C61.4381 36.4091 62.725 37.2099 62.725 38.3901V39.5949C62.725 39.8027 62.5565 39.9712 62.3487 39.9712C61.7603 39.9712 61.2835 40.4085 61.2835 40.9482C61.2835 41.4879 61.7603 41.9252 62.3487 41.9252H65.2317C65.8201 41.9252 66.2968 41.4879 66.2968 40.9482C66.2968 40.4085 65.8201 39.9712 65.2317 39.9712C65.0238 39.9712 64.8553 39.8027 64.8553 39.5949V38.3901C64.8553 37.2099 66.1422 36.409 67.3159 36.5326C67.5687 36.5592 67.8248 36.5728 68.0827 36.5728C71.5466 36.5728 74.3648 34.1789 74.3648 31.2358C74.3648 29.3827 73.2679 27.7144 71.4893 26.7475C71.4886 26.7471 71.4889 26.7459 71.4897 26.7459ZM68.0874 34.6192C68.0868 34.6189 68.0861 34.6188 68.0854 34.6188C66.9196 34.6185 65.8222 34.2192 65.0419 33.531C64.9211 33.4245 64.8591 33.2682 64.8591 33.1072C64.8591 32.9376 64.9296 32.7756 65.0538 32.6601L66.9462 30.8993C67.3592 30.5145 67.3545 29.8965 66.935 29.5168C66.5164 29.1381 65.8417 29.1424 65.4278 29.5272C65.2115 29.7285 64.8591 29.5751 64.8591 29.2796V26.6382C64.8591 26.2249 65.031 25.8302 65.3335 25.5487L66.9462 24.0482C67.3592 23.6634 67.3545 23.0454 66.935 22.6658C66.5164 22.287 65.8417 22.2913 65.4278 22.6761C65.2115 22.8775 64.8591 22.7241 64.8591 22.4285V21.2773C64.8591 20.7376 64.3823 20.3003 63.7939 20.3003C63.2055 20.3003 62.7288 20.7376 62.7288 21.2773V25.7839C62.7288 26.0794 62.3764 26.2328 62.1601 26.0315C61.7462 25.6467 61.0724 25.6424 60.6529 26.0211C60.2334 26.3999 60.2287 27.0188 60.6416 27.4036L61.218 27.9398C62.1815 28.8363 62.7288 30.0931 62.7288 31.4092C62.7288 32.6585 62.2624 33.9669 61.0782 34.3651C60.5849 34.5309 60.0506 34.6196 59.5014 34.6196C57.2125 34.6196 55.3506 33.1021 55.3506 31.2376C55.3506 29.8534 56.3688 28.6225 57.9445 28.1017C58.2608 27.9967 58.5048 27.7617 58.6024 27.4673C58.7 27.172 58.6408 26.8527 58.4419 26.6039C58.0308 26.0909 57.8141 25.4823 57.8141 24.8427C57.8141 23.295 59.0782 22.0202 60.7552 21.8773C61.0987 21.848 61.4046 21.6681 61.5773 21.3952C61.75 21.1224 61.7687 20.7892 61.627 20.5009C61.4872 20.2185 61.4168 19.9164 61.4168 19.6031C61.4168 18.4005 62.4838 17.4218 63.7949 17.4218C65.1059 17.4218 66.1729 18.4005 66.1729 19.6031C66.1729 19.9164 66.1025 20.2185 65.9627 20.5009C65.821 20.7884 65.8388 21.1215 66.0125 21.3952C66.1851 21.6681 66.492 21.848 66.8345 21.8773C68.5116 22.021 69.7757 23.2959 69.7757 24.8427C69.7757 25.4814 69.5589 26.09 69.1479 26.6039C68.9489 26.8527 68.8898 27.172 68.9874 27.4673C69.085 27.7625 69.329 27.9975 69.6452 28.1017C71.2209 28.6225 72.2392 29.8534 72.2392 31.2376C72.2392 33.1026 70.3778 34.6192 68.0894 34.6196C68.0887 34.6196 68.088 34.6195 68.0874 34.6192ZM67.5619 43.3533C67.362 43.1699 67.0908 43.0666 66.8083 43.0666H54.8806C53.8709 43.0666 53.0523 42.2481 53.0523 41.2383C53.0523 40.1434 52.081 39.2524 50.8873 39.2524C49.3687 39.2524 48.1376 38.0214 48.1376 36.5028V28.3131C48.1376 26.0465 49.975 24.2092 52.2415 24.2092C53.2156 24.2092 54.064 23.6049 54.3051 22.7398C54.5463 21.8747 54.1193 20.9709 53.2653 20.5413L33.7679 10.7429C32.592 10.1515 31.2434 10.1515 30.0675 10.7429L10.57 20.5413C9.71602 20.97 9.28808 21.8738 9.5302 22.7398C9.77139 23.6049 10.6207 24.2092 11.5939 24.2092C13.8604 24.2092 15.6978 26.0465 15.6978 28.3131V36.5028C15.6978 38.0214 14.4667 39.2524 12.9481 39.2524C11.7544 39.2524 10.7821 40.1434 10.7821 41.2383V43.0348C10.7821 44.1297 11.7534 45.0206 12.9481 45.0206C14.6761 45.0206 16.0769 46.4215 16.0769 48.1495V75.4799C16.0769 76.0196 16.5537 76.4569 17.1421 76.4569H32.8362C33.9492 76.4569 34.6677 77.6348 34.1582 78.6244C33.9781 78.9756 34.0409 79.3905 34.3178 79.6832C34.5956 79.9758 35.0357 80.0903 35.4393 79.9741L35.6114 79.9248C37.2676 79.4498 39.034 80.167 39.8904 81.6621C40.0753 81.9849 40.4394 82.1846 40.8335 82.1846C40.8589 82.1846 40.8833 82.1846 40.9086 82.1821C41.3309 82.1545 41.695 81.9014 41.8367 81.5356L43.3453 77.6616C43.6285 76.9342 44.3291 76.4552 45.1096 76.4552C45.8893 76.4552 46.5892 76.933 46.8731 77.6591L48.3853 81.527C48.528 81.892 48.893 82.145 49.3144 82.1717C49.3388 82.1734 49.3632 82.1743 49.3885 82.1743C49.7827 82.1743 50.1478 81.9737 50.3326 81.6501C51.1867 80.154 52.952 79.4346 54.6085 79.9074L54.7819 79.9569C55.1854 80.0722 55.6256 79.9569 55.9034 79.6642C56.1811 79.3716 56.2431 78.9558 56.0619 78.6054C55.5555 77.6248 56.2673 76.456 57.3709 76.456H73.0453C73.6337 76.456 74.1104 76.0188 74.1104 75.479V49.7645C74.1104 49.5054 73.9978 49.2566 73.7979 49.0733L67.559 43.3507L67.5619 43.3533ZM67.8744 48.0607C67.8744 47.4267 68.6281 47.0953 69.0953 47.5238C69.5848 47.9729 69.2672 48.7892 68.6029 48.7892C68.2005 48.7892 67.8744 48.463 67.8744 48.0607ZM16.7629 22.2552C15.4706 22.2552 15.0578 20.5141 16.2125 19.9338L31.0904 12.4576C31.631 12.1856 32.2016 12.1864 32.743 12.4576L47.621 19.9338C48.7757 20.5141 48.3629 22.2552 47.0705 22.2552C46.4821 22.2552 46.0054 22.6924 46.0054 23.2322V30.9221C46.0054 35.5233 42.2754 39.2533 37.6742 39.2533H34.3739C31.5954 39.2533 29.343 37.0009 29.343 34.2224V29.2243C29.343 29.2062 29.3577 29.1915 29.3759 29.1915C29.9643 29.1915 30.441 28.7542 30.441 28.2145C30.441 27.6747 29.9643 27.2374 29.3759 27.2374H19.6177C19.0293 27.2374 18.5526 27.6747 18.5526 28.2145C18.5526 28.7542 19.0293 29.1915 19.6177 29.1915C19.6359 29.1915 19.6506 29.2062 19.6506 29.2243V38.3425C19.6506 38.8455 19.2428 39.2533 18.7398 39.2533C18.2368 39.2533 17.829 38.8455 17.829 38.3425V23.2322C17.829 22.6924 17.3513 22.2552 16.7629 22.2552ZM24.4963 29.1915C25.996 29.1915 27.2118 30.4072 27.2118 31.9069V36.5379C27.2118 38.0376 25.996 39.2533 24.4963 39.2533C22.9966 39.2533 21.7809 38.0376 21.7809 36.5379V31.9069C21.7809 30.4072 22.9966 29.1915 24.4963 29.1915ZM12.9476 43.0679C12.9478 43.0678 12.9477 43.0675 12.9474 43.0675C12.9316 43.0671 12.9134 43.0509 12.9134 43.0365V41.24C12.9134 41.2254 12.9312 41.209 12.9481 41.209H50.8863C50.9023 41.209 50.9201 41.2254 50.9201 41.24C50.9201 42.2498 50.1015 43.0684 49.0918 43.0684H12.9478C12.9476 43.0684 12.9474 43.0681 12.9476 43.0679ZM41.1905 77.3923C40.9728 77.9512 40.2045 78.0086 39.9063 77.4881C39.667 77.0706 39.1359 76.8692 38.645 77.0095C38.0683 77.1749 37.5729 76.5714 37.8474 76.0379L38.8709 74.0489C39.0895 73.624 39.5263 73.3647 39.9983 73.29C40.7134 73.179 41.3647 73.426 41.7851 73.9692C42.07 74.3371 42.1906 74.8241 42.0218 75.2577L41.1905 77.3923ZM35.8123 65.7662C35.8125 65.766 35.8125 65.7656 35.8122 65.7655C35.1801 65.3533 34.9212 64.9358 34.9212 64.324C34.9212 63.712 35.1793 63.2945 35.8128 62.8821C37.0787 62.0575 37.6794 60.7276 37.4194 59.3236C37.2899 58.6221 37.4288 58.159 37.9008 57.726C38.3719 57.2939 38.8768 57.1656 39.6426 57.2844C41.1742 57.522 42.6232 56.9711 43.5222 55.8107C43.9717 55.2305 44.4269 54.9938 45.0941 54.9938C45.7614 54.9938 46.2165 55.2305 46.6661 55.8107C47.5651 56.9719 49.0179 57.522 50.5457 57.2853C51.3105 57.1656 51.8154 57.2939 52.2865 57.7268C52.7576 58.159 52.8975 58.6221 52.7679 59.3245C52.5089 60.7284 53.1095 62.0584 54.3746 62.883C55.0071 63.2953 55.2661 63.7128 55.2661 64.3248C55.2661 64.9369 55.0081 65.3544 54.3746 65.7667C53.1086 66.5913 52.508 67.9212 52.7679 69.3252C52.8975 70.0276 52.7576 70.4899 52.2865 70.9228C51.8145 71.355 51.3105 71.4832 50.5447 71.3644C49.0141 71.1269 47.5642 71.6778 46.6651 72.839C46.2156 73.4192 45.7605 73.6559 45.0932 73.6559C44.426 73.6559 43.9708 73.4192 43.5213 72.839C42.7602 71.8559 41.604 71.3102 40.338 71.3102C40.109 71.3102 39.8754 71.3283 39.6407 71.3644C38.8759 71.4832 38.371 71.3558 37.8999 70.9228C37.4288 70.4907 37.289 70.0276 37.4185 69.3252C37.6774 67.9214 37.077 66.5917 35.8124 65.767C35.8121 65.7668 35.8121 65.7665 35.8123 65.7662ZM51.5742 76.9975C51.0825 76.8572 50.5522 77.0595 50.3139 77.4778C50.0164 77.9986 49.2481 77.9424 49.0296 77.3838L48.179 75.2091C48.016 74.7924 48.1291 74.3237 48.4032 73.9701C48.8236 73.4278 49.4739 73.1807 50.19 73.2918C50.6811 73.3679 51.1369 73.6368 51.365 74.0784L52.3704 76.0255C52.6457 76.5584 52.1509 77.1624 51.5742 76.9975ZM54.6798 74.5046C54.2278 74.5046 53.8135 74.2523 53.6061 73.8507L53.4886 73.6232C53.2597 73.1801 53.4262 72.6415 53.7937 72.3044C54.6369 71.531 55.6137 70.6965 56.7579 70.6965H67.0063C67.5947 70.6965 68.0714 70.2592 68.0714 69.7195C68.0714 69.1797 67.5947 68.7424 67.0063 68.7424H56.498C55.5758 68.7424 54.8367 67.8638 55.6096 67.3609C56.7594 66.6119 57.9914 65.7193 59.3637 65.7193H67.0063C67.5947 65.7193 68.0714 65.2821 68.0714 64.7423C68.0714 64.2026 67.5947 63.7653 67.0063 63.7653H60.4797C58.6818 63.7653 57.1159 62.2723 55.6096 61.2905C55.3243 61.1045 55.5036 60.7422 55.8443 60.7422H67.0063C67.5947 60.7422 68.0714 60.3049 68.0714 59.7652C68.0714 59.2255 67.5947 58.7882 67.0063 58.7882H57.7225C56.1788 58.7882 54.932 57.3898 53.7937 56.347C53.5998 56.1685 53.7202 55.7659 53.9837 55.7659H67.0063C67.5947 55.7659 68.0714 55.3287 68.0714 54.7889C68.0714 54.2492 67.5947 53.8119 67.0063 53.8119H50.1336C48.4443 53.8119 46.7835 53.0424 45.0941 53.0424C43.4048 53.0424 41.7438 53.8119 40.0545 53.8119H23.182C22.5936 53.8119 22.1169 54.2492 22.1169 54.7889C22.1169 55.3287 22.5936 55.7659 23.182 55.7659H36.2046C36.4692 55.7659 36.5895 56.1682 36.3946 56.347C35.2568 57.3907 34.0101 58.7882 32.4661 58.7882H23.182C22.5936 58.7882 22.1169 59.2255 22.1169 59.7652C22.1169 60.3049 22.5936 60.7422 23.182 60.7422H34.344C34.6847 60.7422 34.864 61.1045 34.5787 61.2905C33.0724 62.2723 31.5065 63.7653 29.7085 63.7653H23.182C22.5936 63.7653 22.1169 64.2026 22.1169 64.7423C22.1169 65.2821 22.5936 65.7193 23.182 65.7193H30.8247C32.1971 65.7193 33.4288 66.6118 34.5787 67.3609C35.3512 67.8635 34.6121 68.7424 33.6905 68.7424H23.182C22.5936 68.7424 22.1169 69.1797 22.1169 69.7195C22.1169 70.2592 22.5936 70.6965 23.182 70.6965H33.4303C34.5746 70.6965 35.5507 71.5317 36.3946 72.3044C36.7731 72.6516 36.9473 73.2071 36.7123 73.6638L36.6122 73.8583C36.4083 74.2546 36 74.5038 35.5542 74.5038H29.4324C23.2334 74.5038 18.2082 69.4785 18.2082 63.2795V59.7626C18.2082 51.6213 24.808 45.0215 32.9493 45.0215H60.9975C63.6184 45.0215 65.7431 47.1462 65.7431 49.7671C65.7431 50.3068 66.2199 50.7441 66.8083 50.7441C69.6651 50.7441 71.9811 53.06 71.9811 55.9169V63.2941C71.9811 69.4851 66.9624 74.504 60.7714 74.5043L54.6798 74.5046ZM62.2328 49.8084C62.2331 49.8084 62.2333 49.8086 62.2333 49.8089C62.233 50.3484 61.7564 50.7854 61.1681 50.7854H23.182C22.5936 50.7854 22.1169 50.3481 22.1169 49.8084C22.1169 49.2687 22.5936 48.8314 23.182 48.8314H61.1672C61.7554 48.8314 62.232 49.2684 62.2323 49.8079C62.2323 49.8082 62.2325 49.8084 62.2328 49.8084ZM45.0941 70.2652C48.665 70.2652 51.5705 67.6002 51.5705 64.3248C51.5705 61.0495 48.665 58.3845 45.0941 58.3845C41.5233 58.3845 38.6178 61.0495 38.6178 64.3248C38.6178 67.6002 41.5233 70.2652 45.0941 70.2652ZM45.0941 60.3394C47.49 60.3394 49.4392 62.1272 49.4392 64.3248C49.4392 66.5225 47.49 68.3103 45.0941 68.3103C42.6983 68.3103 40.7491 66.5225 40.7491 64.3248C40.7491 62.1272 42.6983 60.3394 45.0941 60.3394ZM82.4393 48.2899L79.5507 50.5951C79.3546 50.7518 79.1049 50.8353 78.8515 50.8353C78.7558 50.8353 78.6601 50.8233 78.5653 50.7992C78.22 50.7114 77.9469 50.4695 77.8371 50.157L76.6499 46.7706C76.4697 46.2567 76.7775 45.7058 77.3387 45.5414C77.899 45.3761 78.4996 45.6585 78.6789 46.1724C78.7197 46.2889 78.8856 46.2825 78.9163 46.1629C79.5959 43.5119 79.9402 40.7881 79.9402 38.0353C79.9402 18.5296 62.6396 2.66001 41.3731 2.66001C40.4563 2.66001 39.5309 2.69014 38.6206 2.74867C38.0322 2.78396 37.5236 2.38111 37.4823 1.84225C37.441 1.30339 37.883 0.836843 38.4705 0.798107C39.4305 0.736129 40.4065 0.70428 41.3731 0.70428C52.2443 0.70428 62.4641 4.58733 70.1511 11.6381C77.838 18.6889 82.0714 28.063 82.0714 38.0344C82.0714 40.9891 81.6946 43.9131 80.9525 46.7569C80.939 46.8086 80.9992 46.8479 81.041 46.8145C81.4849 46.4599 82.1577 46.5029 82.5444 46.9101C82.931 47.3172 82.8841 47.9353 82.4393 48.2899Z"/>
</mask>
<path d="M31.9172 21.5123C34.0222 21.5123 35.7349 19.9413 35.7349 18.0106C35.7349 16.0798 34.0222 14.5089 31.9172 14.5089C29.8122 14.5089 28.0995 16.0798 28.0995 18.0106C28.0995 19.9413 29.8122 21.5123 31.9172 21.5123ZM31.9172 16.4629C32.8472 16.4629 33.6036 17.1567 33.6036 18.0097C33.6036 18.8628 32.8472 19.5566 31.9172 19.5566C30.9872 19.5566 30.2308 18.8628 30.2308 18.0097C30.2308 17.1567 30.9872 16.4629 31.9172 16.4629ZM32.5422 23.2322V27.1316C32.5422 27.6713 33.019 28.1086 33.6074 28.1086H43.1177C43.7062 28.1086 44.1829 27.6713 44.1829 27.1316V23.2322C44.1829 22.6924 43.7062 22.2552 43.1177 22.2552H33.6074C33.019 22.2552 32.5422 22.6924 32.5422 23.2322ZM42.0526 25.1819C42.0526 25.7191 41.6171 26.1546 41.0799 26.1546H40.4014C39.8641 26.1546 39.4287 25.7191 39.4287 25.1819C39.4287 24.6447 39.8641 24.2092 40.4014 24.2092H41.0799C41.6171 24.2092 42.0526 24.6447 42.0526 25.1819ZM34.6735 25.1819C34.6735 24.6447 35.109 24.2092 35.6462 24.2092H36.3247C36.8619 24.2092 37.2974 24.6447 37.2974 25.1819C37.2974 25.7191 36.8619 26.1546 36.3247 26.1546H35.6462C35.109 26.1546 34.6735 25.7191 34.6735 25.1819ZM13.1972 62.1883C13.1975 62.1879 13.1981 62.1878 13.1984 62.1882C13.5993 62.5825 13.5766 63.2 13.147 63.5691C12.9415 63.7455 12.6806 63.8325 12.4197 63.8325C12.1354 63.8325 11.851 63.7283 11.6408 63.5226C4.57044 56.5863 0.676758 47.5342 0.676758 38.0327C0.676758 29.5056 3.72863 21.4787 9.50111 14.8187C14.5601 8.9818 21.4725 4.63772 29.1687 2.41351C29.2166 2.39967 29.2171 2.33175 29.1694 2.31741C28.6101 2.15042 28.3032 1.59865 28.4853 1.08561C28.6673 0.572578 29.2679 0.291959 29.8282 0.458092L33.4694 1.54356C33.8101 1.64513 34.0719 1.89648 34.1676 2.21326C34.2624 2.53003 34.178 2.86918 33.9424 3.11623L31.3879 5.79244C31.1768 6.01281 30.8821 6.12557 30.5855 6.12557C30.3368 6.12557 30.0863 6.04552 29.8845 5.88369C29.4415 5.52818 29.3974 4.91099 29.785 4.50469C29.8665 4.41942 29.7824 4.28242 29.6692 4.31533C13.7273 8.9475 2.80707 22.4864 2.80707 38.0344C2.80707 47.0372 6.49684 55.6156 13.1961 62.1885C13.1964 62.1889 13.197 62.1888 13.1972 62.1883ZM71.4897 26.7459C71.4901 26.7459 71.4903 26.7457 71.4905 26.7455C71.7634 26.1482 71.9051 25.5045 71.9051 24.841C71.9051 22.8572 70.6498 21.1444 68.7934 20.3609C68.4928 20.2341 68.3014 19.9275 68.3014 19.6013C68.3014 17.3211 66.279 15.4652 63.7921 15.4652C61.3051 15.4652 59.2827 17.3202 59.2827 19.6013C59.2827 19.9279 59.0917 20.2339 58.7908 20.361C56.935 21.1445 55.6791 22.8573 55.6791 24.841C55.6791 25.9475 55.2953 27.1273 54.5449 27.9404C53.6992 28.8567 53.2156 30.0053 53.2156 31.2358C53.2156 34.1789 56.0338 36.5728 59.4977 36.5728C59.7557 36.5728 60.0117 36.5592 60.2645 36.5326C61.4381 36.4091 62.725 37.2099 62.725 38.3901V39.5949C62.725 39.8027 62.5565 39.9712 62.3487 39.9712C61.7603 39.9712 61.2835 40.4085 61.2835 40.9482C61.2835 41.4879 61.7603 41.9252 62.3487 41.9252H65.2317C65.8201 41.9252 66.2968 41.4879 66.2968 40.9482C66.2968 40.4085 65.8201 39.9712 65.2317 39.9712C65.0238 39.9712 64.8553 39.8027 64.8553 39.5949V38.3901C64.8553 37.2099 66.1422 36.409 67.3159 36.5326C67.5687 36.5592 67.8248 36.5728 68.0827 36.5728C71.5466 36.5728 74.3648 34.1789 74.3648 31.2358C74.3648 29.3827 73.2679 27.7144 71.4893 26.7475C71.4886 26.7471 71.4889 26.7459 71.4897 26.7459ZM68.0874 34.6192C68.0868 34.6189 68.0861 34.6188 68.0854 34.6188C66.9196 34.6185 65.8222 34.2192 65.0419 33.531C64.9211 33.4245 64.8591 33.2682 64.8591 33.1072C64.8591 32.9376 64.9296 32.7756 65.0538 32.6601L66.9462 30.8993C67.3592 30.5145 67.3545 29.8965 66.935 29.5168C66.5164 29.1381 65.8417 29.1424 65.4278 29.5272C65.2115 29.7285 64.8591 29.5751 64.8591 29.2796V26.6382C64.8591 26.2249 65.031 25.8302 65.3335 25.5487L66.9462 24.0482C67.3592 23.6634 67.3545 23.0454 66.935 22.6658C66.5164 22.287 65.8417 22.2913 65.4278 22.6761C65.2115 22.8775 64.8591 22.7241 64.8591 22.4285V21.2773C64.8591 20.7376 64.3823 20.3003 63.7939 20.3003C63.2055 20.3003 62.7288 20.7376 62.7288 21.2773V25.7839C62.7288 26.0794 62.3764 26.2328 62.1601 26.0315C61.7462 25.6467 61.0724 25.6424 60.6529 26.0211C60.2334 26.3999 60.2287 27.0188 60.6416 27.4036L61.218 27.9398C62.1815 28.8363 62.7288 30.0931 62.7288 31.4092C62.7288 32.6585 62.2624 33.9669 61.0782 34.3651C60.5849 34.5309 60.0506 34.6196 59.5014 34.6196C57.2125 34.6196 55.3506 33.1021 55.3506 31.2376C55.3506 29.8534 56.3688 28.6225 57.9445 28.1017C58.2608 27.9967 58.5048 27.7617 58.6024 27.4673C58.7 27.172 58.6408 26.8527 58.4419 26.6039C58.0308 26.0909 57.8141 25.4823 57.8141 24.8427C57.8141 23.295 59.0782 22.0202 60.7552 21.8773C61.0987 21.848 61.4046 21.6681 61.5773 21.3952C61.75 21.1224 61.7687 20.7892 61.627 20.5009C61.4872 20.2185 61.4168 19.9164 61.4168 19.6031C61.4168 18.4005 62.4838 17.4218 63.7949 17.4218C65.1059 17.4218 66.1729 18.4005 66.1729 19.6031C66.1729 19.9164 66.1025 20.2185 65.9627 20.5009C65.821 20.7884 65.8388 21.1215 66.0125 21.3952C66.1851 21.6681 66.492 21.848 66.8345 21.8773C68.5116 22.021 69.7757 23.2959 69.7757 24.8427C69.7757 25.4814 69.5589 26.09 69.1479 26.6039C68.9489 26.8527 68.8898 27.172 68.9874 27.4673C69.085 27.7625 69.329 27.9975 69.6452 28.1017C71.2209 28.6225 72.2392 29.8534 72.2392 31.2376C72.2392 33.1026 70.3778 34.6192 68.0894 34.6196C68.0887 34.6196 68.088 34.6195 68.0874 34.6192ZM67.5619 43.3533C67.362 43.1699 67.0908 43.0666 66.8083 43.0666H54.8806C53.8709 43.0666 53.0523 42.2481 53.0523 41.2383C53.0523 40.1434 52.081 39.2524 50.8873 39.2524C49.3687 39.2524 48.1376 38.0214 48.1376 36.5028V28.3131C48.1376 26.0465 49.975 24.2092 52.2415 24.2092C53.2156 24.2092 54.064 23.6049 54.3051 22.7398C54.5463 21.8747 54.1193 20.9709 53.2653 20.5413L33.7679 10.7429C32.592 10.1515 31.2434 10.1515 30.0675 10.7429L10.57 20.5413C9.71602 20.97 9.28808 21.8738 9.5302 22.7398C9.77139 23.6049 10.6207 24.2092 11.5939 24.2092C13.8604 24.2092 15.6978 26.0465 15.6978 28.3131V36.5028C15.6978 38.0214 14.4667 39.2524 12.9481 39.2524C11.7544 39.2524 10.7821 40.1434 10.7821 41.2383V43.0348C10.7821 44.1297 11.7534 45.0206 12.9481 45.0206C14.6761 45.0206 16.0769 46.4215 16.0769 48.1495V75.4799C16.0769 76.0196 16.5537 76.4569 17.1421 76.4569H32.8362C33.9492 76.4569 34.6677 77.6348 34.1582 78.6244C33.9781 78.9756 34.0409 79.3905 34.3178 79.6832C34.5956 79.9758 35.0357 80.0903 35.4393 79.9741L35.6114 79.9248C37.2676 79.4498 39.034 80.167 39.8904 81.6621C40.0753 81.9849 40.4394 82.1846 40.8335 82.1846C40.8589 82.1846 40.8833 82.1846 40.9086 82.1821C41.3309 82.1545 41.695 81.9014 41.8367 81.5356L43.3453 77.6616C43.6285 76.9342 44.3291 76.4552 45.1096 76.4552C45.8893 76.4552 46.5892 76.933 46.8731 77.6591L48.3853 81.527C48.528 81.892 48.893 82.145 49.3144 82.1717C49.3388 82.1734 49.3632 82.1743 49.3885 82.1743C49.7827 82.1743 50.1478 81.9737 50.3326 81.6501C51.1867 80.154 52.952 79.4346 54.6085 79.9074L54.7819 79.9569C55.1854 80.0722 55.6256 79.9569 55.9034 79.6642C56.1811 79.3716 56.2431 78.9558 56.0619 78.6054C55.5555 77.6248 56.2673 76.456 57.3709 76.456H73.0453C73.6337 76.456 74.1104 76.0188 74.1104 75.479V49.7645C74.1104 49.5054 73.9978 49.2566 73.7979 49.0733L67.559 43.3507L67.5619 43.3533ZM67.8744 48.0607C67.8744 47.4267 68.6281 47.0953 69.0953 47.5238C69.5848 47.9729 69.2672 48.7892 68.6029 48.7892C68.2005 48.7892 67.8744 48.463 67.8744 48.0607ZM16.7629 22.2552C15.4706 22.2552 15.0578 20.5141 16.2125 19.9338L31.0904 12.4576C31.631 12.1856 32.2016 12.1864 32.743 12.4576L47.621 19.9338C48.7757 20.5141 48.3629 22.2552 47.0705 22.2552C46.4821 22.2552 46.0054 22.6924 46.0054 23.2322V30.9221C46.0054 35.5233 42.2754 39.2533 37.6742 39.2533H34.3739C31.5954 39.2533 29.343 37.0009 29.343 34.2224V29.2243C29.343 29.2062 29.3577 29.1915 29.3759 29.1915C29.9643 29.1915 30.441 28.7542 30.441 28.2145C30.441 27.6747 29.9643 27.2374 29.3759 27.2374H19.6177C19.0293 27.2374 18.5526 27.6747 18.5526 28.2145C18.5526 28.7542 19.0293 29.1915 19.6177 29.1915C19.6359 29.1915 19.6506 29.2062 19.6506 29.2243V38.3425C19.6506 38.8455 19.2428 39.2533 18.7398 39.2533C18.2368 39.2533 17.829 38.8455 17.829 38.3425V23.2322C17.829 22.6924 17.3513 22.2552 16.7629 22.2552ZM24.4963 29.1915C25.996 29.1915 27.2118 30.4072 27.2118 31.9069V36.5379C27.2118 38.0376 25.996 39.2533 24.4963 39.2533C22.9966 39.2533 21.7809 38.0376 21.7809 36.5379V31.9069C21.7809 30.4072 22.9966 29.1915 24.4963 29.1915ZM12.9476 43.0679C12.9478 43.0678 12.9477 43.0675 12.9474 43.0675C12.9316 43.0671 12.9134 43.0509 12.9134 43.0365V41.24C12.9134 41.2254 12.9312 41.209 12.9481 41.209H50.8863C50.9023 41.209 50.9201 41.2254 50.9201 41.24C50.9201 42.2498 50.1015 43.0684 49.0918 43.0684H12.9478C12.9476 43.0684 12.9474 43.0681 12.9476 43.0679ZM41.1905 77.3923C40.9728 77.9512 40.2045 78.0086 39.9063 77.4881C39.667 77.0706 39.1359 76.8692 38.645 77.0095C38.0683 77.1749 37.5729 76.5714 37.8474 76.0379L38.8709 74.0489C39.0895 73.624 39.5263 73.3647 39.9983 73.29C40.7134 73.179 41.3647 73.426 41.7851 73.9692C42.07 74.3371 42.1906 74.8241 42.0218 75.2577L41.1905 77.3923ZM35.8123 65.7662C35.8125 65.766 35.8125 65.7656 35.8122 65.7655C35.1801 65.3533 34.9212 64.9358 34.9212 64.324C34.9212 63.712 35.1793 63.2945 35.8128 62.8821C37.0787 62.0575 37.6794 60.7276 37.4194 59.3236C37.2899 58.6221 37.4288 58.159 37.9008 57.726C38.3719 57.2939 38.8768 57.1656 39.6426 57.2844C41.1742 57.522 42.6232 56.9711 43.5222 55.8107C43.9717 55.2305 44.4269 54.9938 45.0941 54.9938C45.7614 54.9938 46.2165 55.2305 46.6661 55.8107C47.5651 56.9719 49.0179 57.522 50.5457 57.2853C51.3105 57.1656 51.8154 57.2939 52.2865 57.7268C52.7576 58.159 52.8975 58.6221 52.7679 59.3245C52.5089 60.7284 53.1095 62.0584 54.3746 62.883C55.0071 63.2953 55.2661 63.7128 55.2661 64.3248C55.2661 64.9369 55.0081 65.3544 54.3746 65.7667C53.1086 66.5913 52.508 67.9212 52.7679 69.3252C52.8975 70.0276 52.7576 70.4899 52.2865 70.9228C51.8145 71.355 51.3105 71.4832 50.5447 71.3644C49.0141 71.1269 47.5642 71.6778 46.6651 72.839C46.2156 73.4192 45.7605 73.6559 45.0932 73.6559C44.426 73.6559 43.9708 73.4192 43.5213 72.839C42.7602 71.8559 41.604 71.3102 40.338 71.3102C40.109 71.3102 39.8754 71.3283 39.6407 71.3644C38.8759 71.4832 38.371 71.3558 37.8999 70.9228C37.4288 70.4907 37.289 70.0276 37.4185 69.3252C37.6774 67.9214 37.077 66.5917 35.8124 65.767C35.8121 65.7668 35.8121 65.7665 35.8123 65.7662ZM51.5742 76.9975C51.0825 76.8572 50.5522 77.0595 50.3139 77.4778C50.0164 77.9986 49.2481 77.9424 49.0296 77.3838L48.179 75.2091C48.016 74.7924 48.1291 74.3237 48.4032 73.9701C48.8236 73.4278 49.4739 73.1807 50.19 73.2918C50.6811 73.3679 51.1369 73.6368 51.365 74.0784L52.3704 76.0255C52.6457 76.5584 52.1509 77.1624 51.5742 76.9975ZM54.6798 74.5046C54.2278 74.5046 53.8135 74.2523 53.6061 73.8507L53.4886 73.6232C53.2597 73.1801 53.4262 72.6415 53.7937 72.3044C54.6369 71.531 55.6137 70.6965 56.7579 70.6965H67.0063C67.5947 70.6965 68.0714 70.2592 68.0714 69.7195C68.0714 69.1797 67.5947 68.7424 67.0063 68.7424H56.498C55.5758 68.7424 54.8367 67.8638 55.6096 67.3609C56.7594 66.6119 57.9914 65.7193 59.3637 65.7193H67.0063C67.5947 65.7193 68.0714 65.2821 68.0714 64.7423C68.0714 64.2026 67.5947 63.7653 67.0063 63.7653H60.4797C58.6818 63.7653 57.1159 62.2723 55.6096 61.2905C55.3243 61.1045 55.5036 60.7422 55.8443 60.7422H67.0063C67.5947 60.7422 68.0714 60.3049 68.0714 59.7652C68.0714 59.2255 67.5947 58.7882 67.0063 58.7882H57.7225C56.1788 58.7882 54.932 57.3898 53.7937 56.347C53.5998 56.1685 53.7202 55.7659 53.9837 55.7659H67.0063C67.5947 55.7659 68.0714 55.3287 68.0714 54.7889C68.0714 54.2492 67.5947 53.8119 67.0063 53.8119H50.1336C48.4443 53.8119 46.7835 53.0424 45.0941 53.0424C43.4048 53.0424 41.7438 53.8119 40.0545 53.8119H23.182C22.5936 53.8119 22.1169 54.2492 22.1169 54.7889C22.1169 55.3287 22.5936 55.7659 23.182 55.7659H36.2046C36.4692 55.7659 36.5895 56.1682 36.3946 56.347C35.2568 57.3907 34.0101 58.7882 32.4661 58.7882H23.182C22.5936 58.7882 22.1169 59.2255 22.1169 59.7652C22.1169 60.3049 22.5936 60.7422 23.182 60.7422H34.344C34.6847 60.7422 34.864 61.1045 34.5787 61.2905C33.0724 62.2723 31.5065 63.7653 29.7085 63.7653H23.182C22.5936 63.7653 22.1169 64.2026 22.1169 64.7423C22.1169 65.2821 22.5936 65.7193 23.182 65.7193H30.8247C32.1971 65.7193 33.4288 66.6118 34.5787 67.3609C35.3512 67.8635 34.6121 68.7424 33.6905 68.7424H23.182C22.5936 68.7424 22.1169 69.1797 22.1169 69.7195C22.1169 70.2592 22.5936 70.6965 23.182 70.6965H33.4303C34.5746 70.6965 35.5507 71.5317 36.3946 72.3044C36.7731 72.6516 36.9473 73.2071 36.7123 73.6638L36.6122 73.8583C36.4083 74.2546 36 74.5038 35.5542 74.5038H29.4324C23.2334 74.5038 18.2082 69.4785 18.2082 63.2795V59.7626C18.2082 51.6213 24.808 45.0215 32.9493 45.0215H60.9975C63.6184 45.0215 65.7431 47.1462 65.7431 49.7671C65.7431 50.3068 66.2199 50.7441 66.8083 50.7441C69.6651 50.7441 71.9811 53.06 71.9811 55.9169V63.2941C71.9811 69.4851 66.9624 74.504 60.7714 74.5043L54.6798 74.5046ZM62.2328 49.8084C62.2331 49.8084 62.2333 49.8086 62.2333 49.8089C62.233 50.3484 61.7564 50.7854 61.1681 50.7854H23.182C22.5936 50.7854 22.1169 50.3481 22.1169 49.8084C22.1169 49.2687 22.5936 48.8314 23.182 48.8314H61.1672C61.7554 48.8314 62.232 49.2684 62.2323 49.8079C62.2323 49.8082 62.2325 49.8084 62.2328 49.8084ZM45.0941 70.2652C48.665 70.2652 51.5705 67.6002 51.5705 64.3248C51.5705 61.0495 48.665 58.3845 45.0941 58.3845C41.5233 58.3845 38.6178 61.0495 38.6178 64.3248C38.6178 67.6002 41.5233 70.2652 45.0941 70.2652ZM45.0941 60.3394C47.49 60.3394 49.4392 62.1272 49.4392 64.3248C49.4392 66.5225 47.49 68.3103 45.0941 68.3103C42.6983 68.3103 40.7491 66.5225 40.7491 64.3248C40.7491 62.1272 42.6983 60.3394 45.0941 60.3394ZM82.4393 48.2899L79.5507 50.5951C79.3546 50.7518 79.1049 50.8353 78.8515 50.8353C78.7558 50.8353 78.6601 50.8233 78.5653 50.7992C78.22 50.7114 77.9469 50.4695 77.8371 50.157L76.6499 46.7706C76.4697 46.2567 76.7775 45.7058 77.3387 45.5414C77.899 45.3761 78.4996 45.6585 78.6789 46.1724C78.7197 46.2889 78.8856 46.2825 78.9163 46.1629C79.5959 43.5119 79.9402 40.7881 79.9402 38.0353C79.9402 18.5296 62.6396 2.66001 41.3731 2.66001C40.4563 2.66001 39.5309 2.69014 38.6206 2.74867C38.0322 2.78396 37.5236 2.38111 37.4823 1.84225C37.441 1.30339 37.883 0.836843 38.4705 0.798107C39.4305 0.736129 40.4065 0.70428 41.3731 0.70428C52.2443 0.70428 62.4641 4.58733 70.1511 11.6381C77.838 18.6889 82.0714 28.063 82.0714 38.0344C82.0714 40.9891 81.6946 43.9131 80.9525 46.7569C80.939 46.8086 80.9992 46.8479 81.041 46.8145C81.4849 46.4599 82.1577 46.5029 82.5444 46.9101C82.931 47.3172 82.8841 47.9353 82.4393 48.2899Z" fill="#0464A8" fill-opacity="0.13" stroke="#0464A8" stroke-width="2" mask="url(#path-1-inside-1_1_649)"/>
</svg>
