<svg width="19" height="23" viewBox="0 0 19 23" fill="none" xmlns="http://www.w3.org/2000/svg">
    <path d="M12.4293 20.1437C11.6039 21.3812 10.573 22 9.33554 22C8.09804 22 7.0672 21.3812 6.24179 20.1437M15.6282 18.2875H3.04285C2.6813 18.2876 2.32618 18.1918 2.0138 18.0098C1.70142 17.8277 1.44298 17.566 1.26489 17.2513C1.0868 16.9367 0.995449 16.5804 1.00017 16.2189C1.0049 15.8574 1.10553 15.5036 1.29179 15.1937C2.5063 13.1695 3.14792 10.8533 3.14804 8.49264V7.14995C3.14804 5.83713 3.66955 4.57808 4.59786 3.64977C5.52616 2.72147 6.78521 2.19995 8.09804 2.19995H10.573C11.8859 2.19995 13.1449 2.72147 14.0732 3.64977C15.0015 4.57808 15.523 5.83713 15.523 7.14995V8.49264C15.523 10.8526 16.1641 13.1704 17.3793 15.1937C17.5655 15.5036 17.6662 15.8574 17.6709 16.2189C17.6756 16.5804 17.5843 16.9367 17.4062 17.2513C17.2281 17.566 16.9696 17.8277 16.6573 18.0098C16.3449 18.1918 15.9898 18.2876 15.6282 18.2875Z" stroke="#212529" stroke-width="1.25" stroke-linecap="round" stroke-linejoin="round"/>
    <circle cx="15.2" cy="3.3" r="3.3" fill="#FF1E1E"/>
</svg>
