<?xml version="1.0" encoding="UTF-8"?>
<svg version="1.1" viewBox="0 0 2048 2048" width="512" height="512" xmlns="http://www.w3.org/2000/svg">
<path transform="translate(0)" d="m0 0h2048v2048h-2048z" fill="#FEFEFE"/>
<path transform="translate(1146,787)" d="m0 0h4l-2 5-27 27-3 9-1 12 14-1 13-2h8l10 4 10 7 10 9 8-1 10-6 10-9 8-11 3-7v-7l-6-12 1-9h3l8 7 7 11 3 8v17l-4 15-8 17-8 9-10 7-14 7-6 9-6 18-2 11v13l8 35 1 8v11l-2 13-5 15-7 12-10 13 1 1 37 1v126l1 46 1 22 3 8 8 12 16 23 14 19 16 23 8 12 14 19 9 12 8 11 1 3-1 1-22 1h-34l-127-1-5-3-9-10-13-18-15-22-14-20-14-19-13-18-14-18-13-18-10-15-12-17-11-15-3-4h-2l-14 19-15 20-14 20-16 25-8 12-26 40-15 22-14 19-8 11-5 5-10 1h-151l-21-1v-3l7-11 14-19 15-20 10-13 24-34 13-18 11-16 14-20 14-19 8-10 26-36 22-32 13-18 16-21 12-17 20-28 14-19 16-24 12-17 24-32 12-17 2-3h2l2-4 3 1 6 10 13 18 14 20 14 19 10 13 14 19 10 14 18 27 7 11 14 20v2l4 1 1-41-8-4-5-8 1-5 9-1 43-1 6-17v-8l-5-13-10-20-7-11-11-18-6-15-3-13v-21l3-19 4-16-10-2-8-6-5-7-1-3v-18l7-16 7-11 11-11 13-10 14-7z" fill="#8AB774"/>
<path transform="translate(975,935)" d="m0 0 3 1 6 10 13 18 14 20 14 19 10 13 14 19 6 9 1 14-1 8-10 13-4 7-10 13-13 18-38 57-8 11-3 5 2 1h-2l-2 5-10 13-14 19-13 18-13 20-11 17-10 15-14 22-12 18-12 17-13 18-8 10-3 3-10 1h-151l-21-1v-3l7-11 14-19 15-20 10-13 24-34 13-18 11-16 14-20 14-19 8-10 26-36 22-32 13-18 16-21 12-17 20-28 14-19 16-24 12-17 24-32 12-17 2-3h2z" fill="#6BBBC6"/>
<path transform="translate(1055,1045)" d="m0 0 5 5 12 19 10 15 11 16 5 7v2l7 1 6 5 9 11 10 13 22 33 15 22 8 12 3 4-1 2-9-10-15-20-11-15-14-20-1-3h-2l-7-10-2-1v-2l-10 1v15l-1 2h-2v13h-2l1 3-3 9 1 12 1 5-2 13v4l1 5v10l-1 1v7l-2 12-2 5v9l-1 4 1 7-1 1-1 13-1 7 1 2v6l-1 4v9l-1 8-1 6h-2l2 12 3 12 5 10 2 9 7 11h-3l-12-16-17-25-14-20-14-19-13-18-14-18-13-18-10-15-12-17-11-15-5-6 1-5 6-8 7-10 24-36 15-22 21-28 4-7 7-9 1-9z" fill="#79AE98"/>
<path transform="translate(1146,787)" d="m0 0h4l-2 5-27 27-3 9-1 12 14-1 13-2h8l10 4 10 7 10 9 8-1 10-6 10-9 8-11 3-7v-7l-6-12 1-9h3l8 7 7 11 3 8v17l-4 15-8 17-8 9-10 7-14 7-6 9-6 18-2 11v13l8 35 1 8v11l-2 13-5 15-7 12-10 13-3 1h-8v-2l-5 2h-4l1-7 4-12v-8l-5-13-10-20-7-11-11-18-6-15-3-13v-21l3-19 4-16-10-2-8-6-5-7-1-3v-18l7-16 7-11 11-11 13-10 14-7z" fill="#6BBBC6"/>
<path transform="translate(1055,1045)" d="m0 0 5 5 12 19 10 15-1 4-7-5-6-7h-5l-8 10-5 9h-2l-2 5-6 8-7 14v16l-1 2v20l-1 1v32l1 8 2 4-1 6v4l1 5 4 11-1 7h-2v5h-3l4 6-1 1v18l3 7 3 8 2 3-1 4-16-20-14-19-15-22-12-17-11-15-5-6 1-5 6-8 7-10 24-36 15-22 21-28 4-7 7-9 1-9z" fill="#639BA1"/>
<path transform="translate(1146,787)" d="m0 0h4l-2 5-27 27-3 9-1 12 14-1 13-2h8l10 4 10 7 10 9 8-1 10-6 10-9 8-11 3-7v-7l-6-12 1-9h3l8 7 7 11 3 8v17l-4 15-8 17-8 9-10 7-14 7-9-2-17-8-10-5-7-3-11-1-16 3-8 2-11-2-8-6-5-7-1-3v-18l7-16 7-11 11-11 13-10 14-7z" fill="#8AB774"/>
<path transform="translate(1172,670)" d="m0 0h5l1 4-2 3 1 5 9 8 18 12 12 9 9 8 6 10 3 9v16l-4 10-7 9-7 5-6 2h-6l-4-15-4-8-7-7-9-7-12-11-3-4-3-1-2 4-7 8-7 11-1 2v9l4 13v2l-5-2-8-7-6-9-2-6v-10l4-13 5-10 11-12 4-2 1-13 6-12 8-8z" fill="#6BBBC5"/>
<path transform="translate(1161,880)" d="m0 0 5 1 16 8 10 4-7 14-5 18-1 6h-1l-3 16-4 18-1 5-3 41-4 16-6 12-6 9h-3v2l-3-1 4-9 3-9 2-2 1-6v-30l-2-21-3-19-1-11v-22l4-17 6-17z" fill="#639BA1"/>
<path transform="translate(1172,670)" d="m0 0h5l1 4-3 7h-2l-2 12v9l4 11 6 12 12 19 4 8 2 8-5-5-9-8-11-9-7-7-2-3-3-1-2 4-7 8-7 11-1 2v9l4 13v2l-5-2-8-7-6-9-2-6v-10l4-13 5-10 11-12 4-2 1-13 6-12 8-8z" fill="#8AB775"/>
<path transform="translate(1217,794)" d="m0 0 6 4 7 8 6 11 1 4v17l-4 15-8 17-8 9-7-1-9-4-11-7-7-7 4-3 12-6 12-11 7-10 3-7v-7l-6-12 1-9z" fill="#649CA1"/>
<path transform="translate(1177,930)" d="m0 0h1l1 14 8 35 1 8v11l-2 13-5 15-7 12-10 13-3 1h-8v-2l-5 2h-4l1-7 4-12 2-1-2 10-3 7 2 1v-2h3l2-5 6-9 5-13 2-10 3-43 2-9 4-16z" fill="#6BBBC4"/>
<path transform="translate(1150,706)" d="m0 0h3l6 11 4 8-2 5-8 9-7 11-1 2v9l4 13v2l-5-2-8-7-6-9-2-6v-10l4-13 5-10 11-12z" fill="#6CBBC3"/>
<path transform="translate(1146,787)" d="m0 0h4l-2 5-27 27-3 9-2 13-13 2h-11l1-8 8-15 11-12 13-11 12-7z" fill="#6CBBC1"/>
<path transform="translate(1217,794)" d="m0 0 6 4 7 8 6 11 1 4v17l-3 12-6 3h-6l-3-3-3-1v-2l-4-1-2-2-4 3 2-4 7-8 6-12v-7l-6-12 1-9z" fill="#6CBBC3"/>
<path transform="translate(1139,873)" d="m0 0 2 1-7 17-7 26-3 2-5-4-3-8-2 1-3 7-2-3-1-6 4-20 2-7 9-3z" fill="#649CA2"/>
<path transform="translate(1102,1109)" d="m0 0 7 4 13 15 12 17 29 43 8 12 7 10-1 2-9-10-15-20-11-15-14-20-1-3h-2l-7-10-2-1-4-7-7-8v-2l-4-2-1-3h2z" fill="#639BA1"/>
<path transform="translate(1214,710)" d="m0 0 8 6 7 9 4 9 1 4v16l-4 10-7 9-5 3 2-5 2-3 1-12v-10l-1-8-2-10-2-6v-2h-2l-3-6z" fill="#659D9F"/>
<path transform="translate(1162,785)" d="m0 0 19 2 3 1v2l-13 2v31l-4 6h-3l-2-21-1-7v-12z" fill="#6CA298"/>
<path transform="translate(1217,794)" d="m0 0 6 4 2 3-1 4 1 5-2 12h-1l-2-8-5-10 1-9z" fill="#8BB874"/>
<path transform="translate(975,935)" d="m0 0 3 1 6 10 11 15v2l-4-2-8-10v-3h-2l-2-5-4-1v-4l-2-1z" fill="#6EA397"/>
<path transform="translate(1130,917)" d="m0 0 2 1 1 33 1 15-2 2-2-5 1-42h-2z" fill="#8BB874"/>
<path transform="translate(828,1138)" d="m0 0 2 1-5 8h-2l-1 4-2 2-3 7-7 8-1 3-5 2 6-9 11-16z" fill="#6DA499"/>
<path transform="translate(1129,921)" d="m0 0h2v33h-1l-2-10v-18z" fill="#FEFEFE"/>
<path transform="translate(705,1310)" d="m0 0h1v5l-7 7-2 5-3 5-5 4h-2l2-4 9-12z" fill="#6DA59C"/>
<path transform="translate(1109,936)" d="m0 0 3 3 4 17 1 5h-2l-6-16-1-6z" fill="#6AA4A0"/>
<path transform="translate(1057,1308)" d="m0 0 4 5 5 6 9 12-1 2-5-5-12-17z" fill="#72A693"/>
<path transform="translate(910,1272)" d="m0 0 2 2-12 18-3-1 2-4h2l1-4z" fill="#6CA39A"/>
<path transform="translate(737,1265)" d="m0 0 2 1-4 8-7 7-2-1 9-12z" fill="#6DA497"/>
<path transform="translate(697,1324)" d="m0 0v3l-3 5-5 4h-2l2-4 4-5z" fill="#6BA19A"/>
<path transform="translate(828,1138)" d="m0 0 2 1-5 8h-2l-1 4-5 6v-3z" fill="#74A791"/>
<path transform="translate(1108,1380)" d="m0 0 7 6 6 2v1h-7l-6-6z" fill="#7EB08E"/>
<path transform="translate(725,1282)" d="m0 0h2l-1 4-5 6-2-2z" fill="#6DA499"/>
<path transform="translate(1067,1322)" d="m0 0 5 5 3 4-1 2-5-5-2-3z" fill="#6DA299"/>
<path transform="translate(1027,1007)" d="m0 0 5 5 6 9-4-2-7-10z" fill="#76A98E"/>
</svg>
