<?xml version="1.0" encoding="iso-8859-1"?>
<!-- Uploaded to: SVG Repo, www.svgrepo.com, Generator: SVG Repo Mixer Tools -->
<svg fill="#000000" height="800px" width="800px" version="1.1" id="Layer_1" xmlns="http://www.w3.org/2000/svg" xmlns:xlink="http://www.w3.org/1999/xlink" 
	 viewBox="0 0 512 512" xml:space="preserve">
<g>
	<g>
		<path d="M490.667,181.333v-42.667c0-11.782-9.551-21.333-21.333-21.333c0-35.355-28.645-64-64-64c-35.355,0-64,28.645-64,64
			c-11.782,0-21.333,9.551-21.333,21.333v42.667h-85.333v-42.667c0-21.281-8.01-41.294-22.098-56.941
			c-8.475-9.413-23.238-9.411-31.711,0.003C172.689,90.805,161.447,96,149.333,96c-12.114,0-23.356-5.195-31.524-14.271
			c-8.473-9.415-23.236-9.416-31.711-0.003C72.01,97.373,64,117.385,64,138.667v42.667H21.333C9.551,181.333,0,190.885,0,202.667v64
			C0,278.449,9.551,288,21.333,288v128c0,23.558,19.109,42.667,42.667,42.667h384c23.558,0,42.667-19.109,42.667-42.667V288
			c11.782,0,21.333-9.551,21.333-21.333v-64C512,190.885,502.449,181.333,490.667,181.333z M405.333,96
			c11.791,0,21.333,9.542,21.333,21.333H384C384,105.542,393.542,96,405.333,96z M362.667,160H448v21.333h-85.333V160z
			 M106.667,138.667c0-3.682,0.487-7.291,1.427-10.768c12.407,6.955,26.506,10.768,41.24,10.768c14.733,0,28.832-3.813,41.24-10.768
			c0.94,3.477,1.427,7.086,1.427,10.768v42.667h-85.333V138.667z M42.667,224h42.667h128h128h128v21.333H42.667V224z M448,416H64
			V288h384V416z"/>
	</g>
</g>
</svg>