<svg width="94" height="69" viewBox="0 0 94 69" fill="none" xmlns="http://www.w3.org/2000/svg">
<mask id="path-1-inside-1_1_633" fill="white">
<path d="M77.9557 0C70.8128 0 65.1689 5.03932 65.1689 11.3191C65.1689 17.5989 70.9009 22.5607 77.9557 22.5607C85.0105 22.5607 90.8307 17.5213 90.8307 11.2416C90.8307 4.9618 85.0987 0 77.9557 0ZM77.9557 20.0798C72.4001 20.0798 67.9027 16.1258 67.9027 11.2416C67.9027 6.3573 72.4883 2.4809 77.9557 2.4809C83.5113 2.4809 88.0087 6.43483 88.0087 11.3191C88.0087 16.2034 83.5113 20.0798 77.9557 20.0798Z"/>
</mask>
<path d="M77.9557 0C70.8128 0 65.1689 5.03932 65.1689 11.3191C65.1689 17.5989 70.9009 22.5607 77.9557 22.5607C85.0105 22.5607 90.8307 17.5213 90.8307 11.2416C90.8307 4.9618 85.0987 0 77.9557 0ZM77.9557 20.0798C72.4001 20.0798 67.9027 16.1258 67.9027 11.2416C67.9027 6.3573 72.4883 2.4809 77.9557 2.4809C83.5113 2.4809 88.0087 6.43483 88.0087 11.3191C88.0087 16.2034 83.5113 20.0798 77.9557 20.0798Z" fill="white"/>
<path d="M90.8307 11.2416H87.8307H90.8307ZM77.9557 -3C69.5023 -3 62.1689 3.05613 62.1689 11.3191H68.1689C68.1689 7.02252 72.1233 3 77.9557 3V-3ZM62.1689 11.3191C62.1689 19.6196 69.633 25.5607 77.9557 25.5607V19.5607C72.1689 19.5607 68.1689 15.5782 68.1689 11.3191H62.1689ZM77.9557 25.5607C86.2785 25.5607 93.8307 19.5419 93.8307 11.2416H87.8307C87.8307 15.5008 83.7424 19.5607 77.9557 19.5607V25.5607ZM93.8307 11.2416C93.8307 2.92871 86.3524 -3 77.9557 -3V3C83.8449 3 87.8307 6.99488 87.8307 11.2416H93.8307ZM77.9557 17.0798C73.6822 17.0798 70.9027 14.1176 70.9027 11.2416H64.9027C64.9027 18.1341 71.1179 23.0798 77.9557 23.0798V17.0798ZM70.9027 11.2416C70.9027 8.41299 73.7159 5.4809 77.9557 5.4809V-0.519102C71.2606 -0.519102 64.9027 4.30162 64.9027 11.2416H70.9027ZM77.9557 5.4809C82.2292 5.4809 85.0087 8.44305 85.0087 11.3191H91.0087C91.0087 4.42661 84.7935 -0.519102 77.9557 -0.519102V5.4809ZM85.0087 11.3191C85.0087 14.1633 82.2656 17.0798 77.9557 17.0798V23.0798C84.7571 23.0798 91.0087 18.2434 91.0087 11.3191H85.0087Z" fill="#0464A8" mask="url(#path-1-inside-1_1_633)"/>
<mask id="path-3-inside-2_1_633" fill="white">
<path d="M82.0127 13.0246C81.9245 12.7921 81.9245 12.637 81.7481 12.4044C81.6599 12.2494 81.5718 12.0168 81.3954 11.8617C81.219 11.7067 81.1308 11.5516 80.9545 11.3966C80.9441 11.3874 80.9337 11.3783 80.9233 11.3692C80.5794 11.0679 80.1385 10.8828 79.7199 10.6988C79.4553 10.6213 79.279 10.4662 79.0144 10.3887C78.8994 10.355 78.7845 10.3213 78.6767 10.2876C78.4308 10.2107 78.1497 10.1712 77.9562 10.001C77.868 9.92352 77.6916 9.92352 77.6035 9.84599C77.5153 9.76846 77.3389 9.76846 77.2507 9.69094C77.1625 9.61341 77.0744 9.53588 76.9862 9.45835C76.9765 9.44987 76.9669 9.44138 76.9573 9.4328C76.8005 9.29154 76.7216 9.04922 76.7216 8.83813C76.7216 8.68307 76.7216 8.60554 76.7216 8.45049C76.7216 8.24465 76.8347 8.01944 76.9612 7.85699C76.9687 7.84735 76.9769 7.83838 76.9862 7.83026C77.0744 7.75273 77.1625 7.67521 77.2507 7.59768C77.2565 7.59261 77.2626 7.58753 77.2691 7.58248C77.5047 7.39948 77.8343 7.36509 78.1326 7.36509C78.2208 7.36509 78.3089 7.36509 78.3971 7.36509C78.4853 7.36509 78.5735 7.36509 78.6617 7.36509C78.9577 7.36509 79.2475 7.52015 79.5435 7.52015C79.6317 7.52015 79.8081 7.59768 79.8963 7.59768C80.034 7.59768 80.118 7.64497 80.1901 7.66568C80.2282 7.6766 80.2681 7.68191 80.3054 7.69505C80.5077 7.76619 80.7259 7.64051 80.7658 7.42981L80.7781 7.36509L80.9545 6.12464C80.9545 5.94354 80.8285 5.78684 80.6516 5.74796L80.6437 5.74623C80.6158 5.7401 80.5872 5.73758 80.5591 5.73271C80.465 5.71644 80.3246 5.65948 80.249 5.65948C80.1608 5.65948 80.0726 5.58195 79.8963 5.58195C79.8081 5.58195 79.6317 5.50442 79.4553 5.50442C79.279 5.50442 79.1908 5.42689 79.0144 5.42689C78.9657 5.42689 78.9262 5.38741 78.9262 5.3387V4.3415C78.9262 4.12741 78.7527 3.95386 78.5386 3.95386H78.4853H77.2507H77.1974C76.9834 3.95386 76.8098 4.12741 76.8098 4.3415V5.4273C76.8098 5.46989 76.7753 5.50442 76.7327 5.50442C76.7253 5.50442 76.718 5.50547 76.711 5.50753C76.5687 5.54924 76.4264 5.59125 76.2841 5.64562C76.0393 5.73917 75.79 5.8372 75.575 5.98704C75.4803 6.053 75.3955 6.12758 75.3107 6.20217C75.301 6.21063 75.2914 6.21909 75.2818 6.22756C74.922 6.54439 74.5988 6.91679 74.4288 7.36509C74.3406 7.59768 74.2524 7.83026 74.1643 8.06285C74.0761 8.29543 74.0761 8.60554 74.0761 8.83813C74.0761 9.07071 74.0761 9.22577 74.1643 9.45835C74.2524 9.69094 74.2524 9.84599 74.4288 10.0786C74.6388 10.4478 74.9035 10.806 75.2225 11.0864C75.2328 11.0956 75.2432 11.1047 75.2536 11.1138C75.5975 11.4151 76.0385 11.6002 76.4571 11.7842C76.7216 11.8617 76.9862 12.0168 77.1625 12.0943C77.2775 12.128 77.3925 12.1617 77.5002 12.1954C77.7462 12.2723 78.0272 12.3118 78.2208 12.4819C78.3089 12.5595 78.4853 12.5595 78.5735 12.637C78.7249 12.7702 78.9216 12.8655 79.073 12.9987C79.0829 13.0073 79.0927 13.016 79.1026 13.0246C79.2795 13.1802 79.3443 13.448 79.3653 13.6826C79.3665 13.6958 79.3671 13.7091 79.3671 13.7224C79.3671 13.8775 79.3671 13.955 79.3671 14.11C79.3671 14.1876 79.279 14.3426 79.1908 14.4201C79.1026 14.4977 79.0144 14.5752 78.9262 14.6527C78.8568 14.7137 78.7874 14.7748 78.675 14.8358C78.6092 14.8715 78.5488 14.9114 78.4785 14.9371C78.3118 14.9981 78.1257 15.0622 77.9519 15.098C77.8967 15.1094 77.8383 15.1179 77.7798 15.1179C77.6916 15.1179 77.6035 15.1179 77.4271 15.1179C77.3389 15.1179 77.1625 15.1179 77.0743 15.1179C76.898 15.1179 76.7216 15.1179 76.6334 15.1179C76.4571 15.1179 76.2807 15.0404 76.1925 15.0404C76.0161 15.0404 75.8398 14.9628 75.6634 14.8853C75.5757 14.8468 75.488 14.8274 75.4003 14.8081C75.2215 14.7688 75.0529 14.6527 74.8697 14.6527C74.8078 14.6527 74.7459 14.6145 74.6839 14.5917C74.6339 14.5733 74.58 14.5641 74.5312 14.5427C74.3007 14.4414 74.0367 14.5849 73.9963 14.8333L73.9879 14.8853L73.8115 16.2808V16.308C73.8115 16.4297 73.8918 16.5369 74.0087 16.5712C74.0529 16.5841 74.0996 16.5852 74.1451 16.5773C74.453 16.5239 74.623 16.5962 74.8697 16.6685C75.2562 16.8383 75.7013 16.8585 76.1118 16.9571C76.1386 16.9636 76.1656 16.9707 76.1925 16.9786C76.4571 17.0561 76.6334 17.0561 76.898 17.0561C76.9954 17.0561 77.0743 17.1351 77.0743 17.2325V18.219C77.0743 18.4331 77.2479 18.6067 77.462 18.6067H77.5153H78.7499H78.8031C79.0172 18.6067 79.1908 18.4331 79.1908 18.219V17.0557C79.1908 17.0131 79.2253 16.9786 79.2679 16.9786C79.2752 16.9786 79.2825 16.9775 79.2896 16.9755C79.4319 16.9338 79.5742 16.8917 79.7165 16.8374C79.9613 16.7438 80.2058 16.6392 80.4288 16.5016C80.4457 16.4912 80.4625 16.4806 80.4794 16.4698C80.6776 16.3433 80.8715 16.2074 81.0389 16.0423C81.0604 16.0211 81.0819 15.9993 81.1034 15.9768C81.2478 15.8259 81.3786 15.6879 81.4924 15.5128C81.6547 15.2629 81.8018 14.9764 81.9074 14.6978C81.9425 14.6052 81.9776 14.5127 82.0127 14.4201C82.1009 14.1876 82.1009 13.955 82.1009 13.6449C82.1009 13.4123 82.1009 13.2572 82.0127 13.0246Z"/>
</mask>
<path d="M82.0127 13.0246C81.9245 12.7921 81.9245 12.637 81.7481 12.4044C81.6599 12.2494 81.5718 12.0168 81.3954 11.8617C81.219 11.7067 81.1308 11.5516 80.9545 11.3966C80.9441 11.3874 80.9337 11.3783 80.9233 11.3692C80.5794 11.0679 80.1385 10.8828 79.7199 10.6988C79.4553 10.6213 79.279 10.4662 79.0144 10.3887C78.8994 10.355 78.7845 10.3213 78.6767 10.2876C78.4308 10.2107 78.1497 10.1712 77.9562 10.001C77.868 9.92352 77.6916 9.92352 77.6035 9.84599C77.5153 9.76846 77.3389 9.76846 77.2507 9.69094C77.1625 9.61341 77.0744 9.53588 76.9862 9.45835C76.9765 9.44987 76.9669 9.44138 76.9573 9.4328C76.8005 9.29154 76.7216 9.04922 76.7216 8.83813C76.7216 8.68307 76.7216 8.60554 76.7216 8.45049C76.7216 8.24465 76.8347 8.01944 76.9612 7.85699C76.9687 7.84735 76.9769 7.83838 76.9862 7.83026C77.0744 7.75273 77.1625 7.67521 77.2507 7.59768C77.2565 7.59261 77.2626 7.58753 77.2691 7.58248C77.5047 7.39948 77.8343 7.36509 78.1326 7.36509C78.2208 7.36509 78.3089 7.36509 78.3971 7.36509C78.4853 7.36509 78.5735 7.36509 78.6617 7.36509C78.9577 7.36509 79.2475 7.52015 79.5435 7.52015C79.6317 7.52015 79.8081 7.59768 79.8963 7.59768C80.034 7.59768 80.118 7.64497 80.1901 7.66568C80.2282 7.6766 80.2681 7.68191 80.3054 7.69505C80.5077 7.76619 80.7259 7.64051 80.7658 7.42981L80.7781 7.36509L80.9545 6.12464C80.9545 5.94354 80.8285 5.78684 80.6516 5.74796L80.6437 5.74623C80.6158 5.7401 80.5872 5.73758 80.5591 5.73271C80.465 5.71644 80.3246 5.65948 80.249 5.65948C80.1608 5.65948 80.0726 5.58195 79.8963 5.58195C79.8081 5.58195 79.6317 5.50442 79.4553 5.50442C79.279 5.50442 79.1908 5.42689 79.0144 5.42689C78.9657 5.42689 78.9262 5.38741 78.9262 5.3387V4.3415C78.9262 4.12741 78.7527 3.95386 78.5386 3.95386H78.4853H77.2507H77.1974C76.9834 3.95386 76.8098 4.12741 76.8098 4.3415V5.4273C76.8098 5.46989 76.7753 5.50442 76.7327 5.50442C76.7253 5.50442 76.718 5.50547 76.711 5.50753C76.5687 5.54924 76.4264 5.59125 76.2841 5.64562C76.0393 5.73917 75.79 5.8372 75.575 5.98704C75.4803 6.053 75.3955 6.12758 75.3107 6.20217C75.301 6.21063 75.2914 6.21909 75.2818 6.22756C74.922 6.54439 74.5988 6.91679 74.4288 7.36509C74.3406 7.59768 74.2524 7.83026 74.1643 8.06285C74.0761 8.29543 74.0761 8.60554 74.0761 8.83813C74.0761 9.07071 74.0761 9.22577 74.1643 9.45835C74.2524 9.69094 74.2524 9.84599 74.4288 10.0786C74.6388 10.4478 74.9035 10.806 75.2225 11.0864C75.2328 11.0956 75.2432 11.1047 75.2536 11.1138C75.5975 11.4151 76.0385 11.6002 76.4571 11.7842C76.7216 11.8617 76.9862 12.0168 77.1625 12.0943C77.2775 12.128 77.3925 12.1617 77.5002 12.1954C77.7462 12.2723 78.0272 12.3118 78.2208 12.4819C78.3089 12.5595 78.4853 12.5595 78.5735 12.637C78.7249 12.7702 78.9216 12.8655 79.073 12.9987C79.0829 13.0073 79.0927 13.016 79.1026 13.0246C79.2795 13.1802 79.3443 13.448 79.3653 13.6826C79.3665 13.6958 79.3671 13.7091 79.3671 13.7224C79.3671 13.8775 79.3671 13.955 79.3671 14.11C79.3671 14.1876 79.279 14.3426 79.1908 14.4201C79.1026 14.4977 79.0144 14.5752 78.9262 14.6527C78.8568 14.7137 78.7874 14.7748 78.675 14.8358C78.6092 14.8715 78.5488 14.9114 78.4785 14.9371C78.3118 14.9981 78.1257 15.0622 77.9519 15.098C77.8967 15.1094 77.8383 15.1179 77.7798 15.1179C77.6916 15.1179 77.6035 15.1179 77.4271 15.1179C77.3389 15.1179 77.1625 15.1179 77.0743 15.1179C76.898 15.1179 76.7216 15.1179 76.6334 15.1179C76.4571 15.1179 76.2807 15.0404 76.1925 15.0404C76.0161 15.0404 75.8398 14.9628 75.6634 14.8853C75.5757 14.8468 75.488 14.8274 75.4003 14.8081C75.2215 14.7688 75.0529 14.6527 74.8697 14.6527C74.8078 14.6527 74.7459 14.6145 74.6839 14.5917C74.6339 14.5733 74.58 14.5641 74.5312 14.5427C74.3007 14.4414 74.0367 14.5849 73.9963 14.8333L73.9879 14.8853L73.8115 16.2808V16.308C73.8115 16.4297 73.8918 16.5369 74.0087 16.5712C74.0529 16.5841 74.0996 16.5852 74.1451 16.5773C74.453 16.5239 74.623 16.5962 74.8697 16.6685C75.2562 16.8383 75.7013 16.8585 76.1118 16.9571C76.1386 16.9636 76.1656 16.9707 76.1925 16.9786C76.4571 17.0561 76.6334 17.0561 76.898 17.0561C76.9954 17.0561 77.0743 17.1351 77.0743 17.2325V18.219C77.0743 18.4331 77.2479 18.6067 77.462 18.6067H77.5153H78.7499H78.8031C79.0172 18.6067 79.1908 18.4331 79.1908 18.219V17.0557C79.1908 17.0131 79.2253 16.9786 79.2679 16.9786C79.2752 16.9786 79.2825 16.9775 79.2896 16.9755C79.4319 16.9338 79.5742 16.8917 79.7165 16.8374C79.9613 16.7438 80.2058 16.6392 80.4288 16.5016C80.4457 16.4912 80.4625 16.4806 80.4794 16.4698C80.6776 16.3433 80.8715 16.2074 81.0389 16.0423C81.0604 16.0211 81.0819 15.9993 81.1034 15.9768C81.2478 15.8259 81.3786 15.6879 81.4924 15.5128C81.6547 15.2629 81.8018 14.9764 81.9074 14.6978C81.9425 14.6052 81.9776 14.5127 82.0127 14.4201C82.1009 14.1876 82.1009 13.955 82.1009 13.6449C82.1009 13.4123 82.1009 13.2572 82.0127 13.0246Z" fill="white" stroke="#0464A8" stroke-width="6" mask="url(#path-3-inside-2_1_633)"/>
<path d="M36.514 28.4826L36.518 28.4801C36.5219 28.4792 36.5264 28.4784 36.5315 28.4778C36.5369 28.4771 36.5421 28.4767 36.5468 28.4766C36.5492 28.4766 36.5512 28.4766 36.5529 28.4767L41.9636 30.4568C38.4502 29.9739 34.8681 30.368 31.5424 31.6046L36.514 28.4826ZM55.6867 34.9397L49.6432 32.7385C53.6613 33.286 57.7617 32.6855 61.4601 31.0004L55.8238 34.9294C55.8111 34.9325 55.7937 34.9359 55.7727 34.9383C55.74 34.942 55.7114 34.9419 55.6918 34.9402C55.6899 34.94 55.6882 34.9399 55.6867 34.9397Z" fill="white" stroke="#0464A8" stroke-width="3"/>
<path d="M84.5679 61.666C85.1376 64.3531 87.0518 66.5435 89.5733 67.4999H84.3942H80.5649C82.8566 66.5277 84.4824 64.2916 84.5679 61.666ZM71.6083 62.9742C72.0946 65.0193 73.5368 66.6939 75.4367 67.4999H71.4311H69.6676C70.8277 66.8289 71.6083 65.5746 71.6083 64.138V62.9742ZM63.8463 64.138C63.8463 65.5746 64.6269 66.8289 65.787 67.4999H63.8472H59.9297C61.9631 66.6373 63.4722 64.7797 63.8463 62.5379V64.138ZM50.9731 62.9743C51.4594 65.0193 52.9016 66.6939 54.8016 67.4999H50.8841H49.0324C50.1926 66.8289 50.9731 65.5746 50.9731 64.138V62.9743ZM43.2111 64.138C43.2111 65.5746 43.9917 66.8289 45.1518 67.4999H43.3002H39.3827C41.2826 66.6939 42.7248 65.0193 43.2111 62.9743V64.138ZM30.4261 62.9743C30.9124 65.0193 32.3546 66.6939 34.2545 67.4999H30.337H28.4854C29.6456 66.8289 30.4261 65.5746 30.4261 64.138V62.9743ZM22.6641 64.138C22.6641 65.5746 23.4447 66.8289 24.6048 67.4999H22.5768H18.7475C20.7809 66.6373 22.29 64.7797 22.6641 62.5379V64.138ZM9.61444 61.5962C9.67304 64.2519 11.3073 66.519 13.6194 67.4999H9.61368H4.53888C7.09558 66.536 9.03739 64.3182 9.61444 61.5962ZM1.63546 68.024C1.63545 68.024 1.63583 68.0238 1.63664 68.0236L1.63546 68.024ZM1.63546 67.4949C1.63547 67.4949 1.63588 67.495 1.63666 67.4953L1.63546 67.4949ZM13.6194 48.7145C11.7195 49.5205 10.2772 51.1951 9.79091 53.2401V48.7145H13.6194ZM9.66026 48.7195C9.66023 48.7195 9.66061 48.7193 9.66144 48.7191L9.66026 48.7195ZM22.6641 53.6765C22.29 51.4348 20.7809 49.5772 18.7475 48.7145H22.6641V53.6765ZM22.7948 48.7195C22.7948 48.7196 22.7944 48.7194 22.7936 48.7191L22.7948 48.7195ZM34.2545 41.4269C32.3546 42.2329 30.9124 43.9075 30.4261 45.9525V41.4269H34.2545ZM30.2954 41.4319C30.2955 41.4319 30.2958 41.4317 30.2966 41.4314L30.2954 41.4319ZM43.2111 45.9525C42.7248 43.9075 41.2826 42.2329 39.3827 41.4269H43.2111V45.9525ZM43.3418 41.4319C43.3418 41.4319 43.3413 41.4318 43.3406 41.4314L43.3418 41.4319ZM54.8016 43.2875C52.9016 44.0936 51.4594 45.7682 50.9731 47.8132V43.2875H54.8016ZM50.8424 43.2926C50.8424 43.2925 50.8428 43.2924 50.8436 43.2921L50.8424 43.2926ZM63.8463 48.2496C63.4722 46.0078 61.9631 44.1502 59.9297 43.2875H63.8463V48.2496ZM75.4367 30.8831C73.5368 31.6891 72.0946 33.3637 71.6083 35.4087V30.8831H75.4367ZM71.4776 30.8881C71.4776 30.8881 71.478 30.8879 71.4788 30.8876L71.4776 30.8881ZM84.3933 35.4087C83.907 33.3637 82.4648 31.6891 80.5649 30.8831H84.3933V35.4087ZM84.524 30.8881C84.524 30.8881 84.5236 30.888 84.5228 30.8876L84.524 30.8881ZM92.4569 68.023C92.457 68.0231 92.456 68.0229 92.4541 68.0221C92.4559 68.0226 92.4568 68.0229 92.4569 68.023Z" fill="white" stroke="#0464A8" stroke-width="3"/>
</svg>
