<svg width="118" height="103" viewBox="0 0 118 103" fill="none" xmlns="http://www.w3.org/2000/svg">
<mask id="path-1-inside-1_1_653" fill="white">
<path fill-rule="evenodd" clip-rule="evenodd" d="M39.5013 92.0537C39.0915 92.365 38.5024 92.0727 38.5024 91.558C38.5024 90.6332 37.6764 89.8848 36.6585 89.8848C27.6099 89.8848 20.5207 86.9525 17.2063 81.8434C15.4728 79.1688 19.1754 77.8855 21.9721 79.4142C22.5736 79.743 23.2038 80.0426 23.8624 80.3126C28.0897 82.0494 32.7034 82.2812 36.6585 82.2812C37.6764 82.2812 38.5024 81.5328 38.5024 80.6079C38.5024 79.8693 39.3254 79.4285 39.9402 79.8379L44.0797 82.594C46.1337 83.9616 46.2264 86.9462 44.2612 88.4387L39.5013 92.0537ZM52.3553 83.9509L37.749 74.228C37.1888 73.8538 36.4445 73.7997 35.8247 74.0845C35.2048 74.368 34.8145 74.9458 34.8145 75.5777C34.8145 77.4034 33.3035 78.8917 31.488 78.6988C25.0658 78.0166 19.4753 75.5747 17.2944 67.8693C17.1064 67.2056 16.4931 66.7138 15.7436 66.6267C14.9953 66.5385 14.264 66.8726 13.897 67.4739C10.7693 72.5807 10.8173 78.5864 14.028 83.539C17.352 88.665 23.6242 91.9719 31.6249 92.9367C33.4001 93.1508 34.8145 94.6038 34.8145 96.3918C34.8145 97.0425 35.2295 97.6356 35.8778 97.9085C36.1268 98.0168 36.3939 98.065 36.6585 98.065C37.0838 98.065 37.5039 97.9344 37.8424 97.6767L52.4487 86.5843C52.8831 86.2536 53.1256 85.7606 53.1087 85.2475C53.0893 84.7333 52.8118 84.2556 52.3553 83.9509ZM81.2485 17.6756C81.6584 17.3643 82.2475 17.6567 82.2475 18.1714C82.2475 19.095 83.0735 19.8446 84.0914 19.8446C93.14 19.8446 100.229 22.7745 103.542 27.886C105.276 30.5595 101.573 31.844 98.778 30.3145C98.1763 29.9853 97.5461 29.6852 96.8875 29.4145C92.6602 27.6812 88.0464 27.4459 84.0914 27.4459C83.0735 27.4459 82.2475 28.1942 82.2475 29.1191C82.2475 29.8588 81.4233 30.3002 80.8076 29.8903L76.67 27.1357C74.6156 25.7681 74.5228 22.7829 76.4884 21.2903L81.2485 17.6756ZM68.3945 25.7762L83.0009 35.5014C83.5611 35.8732 84.3054 35.9309 84.9239 35.6438C85.5437 35.3602 85.9341 34.7824 85.9341 34.1529C85.9341 32.327 87.4449 30.8384 89.2607 31.0308C95.6835 31.7112 101.273 34.1526 103.454 41.8601C103.642 42.5226 104.256 43.0156 105.005 43.1039C105.084 43.1121 105.163 43.1168 105.241 43.1168C105.904 43.1168 106.525 42.792 106.853 42.2578C109.982 37.1475 109.933 31.1418 106.722 26.1892C103.398 21.0637 97.1269 17.7579 89.1273 16.7938C87.3509 16.5797 85.9354 15.1257 85.9354 13.3364C85.9354 12.6869 85.5217 12.0962 84.872 11.8197C84.2224 11.5455 83.4573 11.6349 82.9075 12.0538L68.3012 23.1463C67.8668 23.477 67.623 23.9688 67.6411 24.483C67.6606 24.996 67.9381 25.4726 68.3945 25.7762ZM10.4983 27.8142C10.4983 17.7301 19.5391 9.52516 30.6533 9.52516C41.7663 9.52516 50.8083 17.7301 50.8083 27.8142C50.8083 37.8994 41.7676 46.1032 30.6533 46.1032C19.5391 46.1032 10.4983 37.8994 10.4983 27.8142ZM54.4962 27.8142C54.4962 15.8851 43.8008 6.17988 30.6533 6.17988C17.5058 6.17988 6.81041 15.8851 6.81041 27.8142C6.81041 39.7456 17.5058 49.4497 30.6533 49.4497C43.7995 49.4497 54.4962 39.7468 54.4962 27.8142ZM30.6533 42.1202C31.6712 42.1202 32.4973 41.3718 32.4973 40.4469C32.4973 39.7212 33.0369 39.1171 33.7428 38.9483C35.5299 38.5211 37.0652 37.7223 38.0862 36.651C39.2338 35.4484 39.7239 33.9376 39.5022 32.2867C38.8305 27.2635 32.9161 26.3822 30.9723 26.0939C26.2976 25.3985 26.2055 23.6852 26.1718 23.0381C26.072 21.1695 27.7707 20.147 29.3942 19.8128C31.5934 19.3598 34.3127 19.9858 35.4305 22.3991C35.8247 23.2522 36.9048 23.6523 37.8437 23.2934C38.7825 22.9369 39.2234 21.9543 38.8292 21.1036C37.7674 18.8088 35.8628 17.4392 33.767 16.7929C33.0455 16.5704 32.496 15.9388 32.496 15.1838C32.496 14.2601 31.6712 13.5106 30.652 13.5106C29.6341 13.5106 28.8081 14.2589 28.8081 15.1838V16.2702C28.8081 16.406 28.7091 16.5233 28.576 16.5499C24.7623 17.3336 22.3154 20.0093 22.4865 23.2028C22.6097 25.5091 24.0776 28.4578 30.3732 29.3956C34.9183 30.0734 35.682 31.5136 35.8402 32.6915C35.9362 33.4104 35.7637 33.9729 35.2956 34.4636C34.4722 35.3284 32.7436 35.9132 30.8958 35.9544C28.7666 36.0003 26.0473 35.1978 25.3847 32.7821C25.137 31.8878 24.1373 31.3407 23.1492 31.5642C22.1611 31.789 21.5594 32.6962 21.8058 33.5916C22.5112 36.1575 24.6698 38.073 27.5464 38.8818C28.2628 39.0832 28.8081 39.7051 28.8081 40.4493C28.8094 41.3706 29.6341 42.1202 30.6533 42.1202ZM3.68789 27.8142C3.68789 41.3083 15.7851 52.2843 30.6533 52.2843C45.5216 52.2843 57.6187 41.3083 57.6187 27.8142C57.6187 14.3236 45.5216 3.34528 30.6533 3.34528C15.7851 3.34646 3.68789 14.3236 3.68789 27.8142ZM61.3066 27.8142C61.3066 12.4786 47.5561 0 30.6533 0C13.7505 0 0 12.4798 0 27.8142C0 43.1521 13.7505 55.6295 30.6533 55.6295C47.5549 55.6307 61.3066 43.1533 61.3066 27.8142ZM113.784 72.1159C113.347 72.6642 112.7 73.0231 111.965 73.1302C111.229 73.2373 110.49 73.0784 109.888 72.683L85.5515 56.6356C85.2286 56.4226 84.8487 56.3179 84.4675 56.3179C84.0875 56.3179 83.7076 56.4226 83.3847 56.6356L59.049 72.6807C58.4461 73.0784 57.7082 73.2373 56.973 73.1302C56.2364 73.0243 55.5907 72.6654 55.1537 72.1159C54.7167 71.5687 54.5403 70.9004 54.6583 70.232C54.7763 69.5649 55.1731 68.9789 55.7774 68.58L82.8323 50.7452C83.8191 50.0968 85.1846 50.1098 86.1532 50.7769C86.1636 50.784 86.174 50.7899 86.183 50.7958L113.161 68.5823C114.406 69.4013 114.686 70.9875 113.784 72.1159ZM99.3746 99.653C99.3746 99.6526 99.3749 99.6524 99.3752 99.6524C102.011 99.6521 104.156 97.7048 104.156 95.3128V83.6374C104.156 77.0191 100.83 70.8437 95.3046 67.2009C88.7307 62.8671 80.2068 62.8671 73.6329 67.2009C68.1073 70.8437 64.7819 77.0191 64.7819 83.6374V95.3128C64.7819 97.705 66.9266 99.6524 69.5629 99.6524C73.2304 99.6524 76.2034 96.6793 76.2034 93.0118V81.1598C76.2034 78.677 78.4273 76.659 81.1634 76.659H87.7741C90.5102 76.659 92.7341 78.6758 92.7341 81.1598V96.3333C92.7341 98.167 94.2206 99.6535 96.0544 99.6535H99.374C99.3744 99.6535 99.3746 99.6533 99.3746 99.653ZM89.0462 95.0749C89.0462 97.603 86.9968 99.6524 84.4688 99.6524C81.9407 99.6524 79.8913 97.603 79.8913 95.0749V81.1598C79.8913 80.535 80.4735 80.0055 81.1634 80.0055H87.7741C88.464 80.0055 89.0462 80.5338 89.0462 81.1598V95.0749ZM115.327 65.8736C118.217 67.774 118.866 71.4546 116.77 74.0809C115.756 75.3529 114.256 76.1895 112.548 76.4354C110.439 76.7403 107.845 78.2364 107.845 80.3679V95.314C107.845 99.5512 104.045 103 99.3759 103H69.5642C64.8947 103 61.0953 99.5512 61.0953 95.314V79.329C61.0953 77.6487 59.1072 76.5107 57.4268 76.5107C57.0832 76.5107 56.737 76.486 56.392 76.4366C54.683 76.1895 53.1839 75.3529 52.1686 74.0821C51.1533 72.8101 50.7448 71.2569 51.0171 69.7072C51.2907 68.1576 52.2114 66.7962 53.6119 65.876L80.6668 48.0388C82.9892 46.5115 86.0793 46.5374 88.3654 48.0988L115.327 65.8736Z"/>
</mask>
<path fill-rule="evenodd" clip-rule="evenodd" d="M39.5013 92.0537C39.0915 92.365 38.5024 92.0727 38.5024 91.558C38.5024 90.6332 37.6764 89.8848 36.6585 89.8848C27.6099 89.8848 20.5207 86.9525 17.2063 81.8434C15.4728 79.1688 19.1754 77.8855 21.9721 79.4142C22.5736 79.743 23.2038 80.0426 23.8624 80.3126C28.0897 82.0494 32.7034 82.2812 36.6585 82.2812C37.6764 82.2812 38.5024 81.5328 38.5024 80.6079C38.5024 79.8693 39.3254 79.4285 39.9402 79.8379L44.0797 82.594C46.1337 83.9616 46.2264 86.9462 44.2612 88.4387L39.5013 92.0537ZM52.3553 83.9509L37.749 74.228C37.1888 73.8538 36.4445 73.7997 35.8247 74.0845C35.2048 74.368 34.8145 74.9458 34.8145 75.5777C34.8145 77.4034 33.3035 78.8917 31.488 78.6988C25.0658 78.0166 19.4753 75.5747 17.2944 67.8693C17.1064 67.2056 16.4931 66.7138 15.7436 66.6267C14.9953 66.5385 14.264 66.8726 13.897 67.4739C10.7693 72.5807 10.8173 78.5864 14.028 83.539C17.352 88.665 23.6242 91.9719 31.6249 92.9367C33.4001 93.1508 34.8145 94.6038 34.8145 96.3918C34.8145 97.0425 35.2295 97.6356 35.8778 97.9085C36.1268 98.0168 36.3939 98.065 36.6585 98.065C37.0838 98.065 37.5039 97.9344 37.8424 97.6767L52.4487 86.5843C52.8831 86.2536 53.1256 85.7606 53.1087 85.2475C53.0893 84.7333 52.8118 84.2556 52.3553 83.9509ZM81.2485 17.6756C81.6584 17.3643 82.2475 17.6567 82.2475 18.1714C82.2475 19.095 83.0735 19.8446 84.0914 19.8446C93.14 19.8446 100.229 22.7745 103.542 27.886C105.276 30.5595 101.573 31.844 98.778 30.3145C98.1763 29.9853 97.5461 29.6852 96.8875 29.4145C92.6602 27.6812 88.0464 27.4459 84.0914 27.4459C83.0735 27.4459 82.2475 28.1942 82.2475 29.1191C82.2475 29.8588 81.4233 30.3002 80.8076 29.8903L76.67 27.1357C74.6156 25.7681 74.5228 22.7829 76.4884 21.2903L81.2485 17.6756ZM68.3945 25.7762L83.0009 35.5014C83.5611 35.8732 84.3054 35.9309 84.9239 35.6438C85.5437 35.3602 85.9341 34.7824 85.9341 34.1529C85.9341 32.327 87.4449 30.8384 89.2607 31.0308C95.6835 31.7112 101.273 34.1526 103.454 41.8601C103.642 42.5226 104.256 43.0156 105.005 43.1039C105.084 43.1121 105.163 43.1168 105.241 43.1168C105.904 43.1168 106.525 42.792 106.853 42.2578C109.982 37.1475 109.933 31.1418 106.722 26.1892C103.398 21.0637 97.1269 17.7579 89.1273 16.7938C87.3509 16.5797 85.9354 15.1257 85.9354 13.3364C85.9354 12.6869 85.5217 12.0962 84.872 11.8197C84.2224 11.5455 83.4573 11.6349 82.9075 12.0538L68.3012 23.1463C67.8668 23.477 67.623 23.9688 67.6411 24.483C67.6606 24.996 67.9381 25.4726 68.3945 25.7762ZM10.4983 27.8142C10.4983 17.7301 19.5391 9.52516 30.6533 9.52516C41.7663 9.52516 50.8083 17.7301 50.8083 27.8142C50.8083 37.8994 41.7676 46.1032 30.6533 46.1032C19.5391 46.1032 10.4983 37.8994 10.4983 27.8142ZM54.4962 27.8142C54.4962 15.8851 43.8008 6.17988 30.6533 6.17988C17.5058 6.17988 6.81041 15.8851 6.81041 27.8142C6.81041 39.7456 17.5058 49.4497 30.6533 49.4497C43.7995 49.4497 54.4962 39.7468 54.4962 27.8142ZM30.6533 42.1202C31.6712 42.1202 32.4973 41.3718 32.4973 40.4469C32.4973 39.7212 33.0369 39.1171 33.7428 38.9483C35.5299 38.5211 37.0652 37.7223 38.0862 36.651C39.2338 35.4484 39.7239 33.9376 39.5022 32.2867C38.8305 27.2635 32.9161 26.3822 30.9723 26.0939C26.2976 25.3985 26.2055 23.6852 26.1718 23.0381C26.072 21.1695 27.7707 20.147 29.3942 19.8128C31.5934 19.3598 34.3127 19.9858 35.4305 22.3991C35.8247 23.2522 36.9048 23.6523 37.8437 23.2934C38.7825 22.9369 39.2234 21.9543 38.8292 21.1036C37.7674 18.8088 35.8628 17.4392 33.767 16.7929C33.0455 16.5704 32.496 15.9388 32.496 15.1838C32.496 14.2601 31.6712 13.5106 30.652 13.5106C29.6341 13.5106 28.8081 14.2589 28.8081 15.1838V16.2702C28.8081 16.406 28.7091 16.5233 28.576 16.5499C24.7623 17.3336 22.3154 20.0093 22.4865 23.2028C22.6097 25.5091 24.0776 28.4578 30.3732 29.3956C34.9183 30.0734 35.682 31.5136 35.8402 32.6915C35.9362 33.4104 35.7637 33.9729 35.2956 34.4636C34.4722 35.3284 32.7436 35.9132 30.8958 35.9544C28.7666 36.0003 26.0473 35.1978 25.3847 32.7821C25.137 31.8878 24.1373 31.3407 23.1492 31.5642C22.1611 31.789 21.5594 32.6962 21.8058 33.5916C22.5112 36.1575 24.6698 38.073 27.5464 38.8818C28.2628 39.0832 28.8081 39.7051 28.8081 40.4493C28.8094 41.3706 29.6341 42.1202 30.6533 42.1202ZM3.68789 27.8142C3.68789 41.3083 15.7851 52.2843 30.6533 52.2843C45.5216 52.2843 57.6187 41.3083 57.6187 27.8142C57.6187 14.3236 45.5216 3.34528 30.6533 3.34528C15.7851 3.34646 3.68789 14.3236 3.68789 27.8142ZM61.3066 27.8142C61.3066 12.4786 47.5561 0 30.6533 0C13.7505 0 0 12.4798 0 27.8142C0 43.1521 13.7505 55.6295 30.6533 55.6295C47.5549 55.6307 61.3066 43.1533 61.3066 27.8142ZM113.784 72.1159C113.347 72.6642 112.7 73.0231 111.965 73.1302C111.229 73.2373 110.49 73.0784 109.888 72.683L85.5515 56.6356C85.2286 56.4226 84.8487 56.3179 84.4675 56.3179C84.0875 56.3179 83.7076 56.4226 83.3847 56.6356L59.049 72.6807C58.4461 73.0784 57.7082 73.2373 56.973 73.1302C56.2364 73.0243 55.5907 72.6654 55.1537 72.1159C54.7167 71.5687 54.5403 70.9004 54.6583 70.232C54.7763 69.5649 55.1731 68.9789 55.7774 68.58L82.8323 50.7452C83.8191 50.0968 85.1846 50.1098 86.1532 50.7769C86.1636 50.784 86.174 50.7899 86.183 50.7958L113.161 68.5823C114.406 69.4013 114.686 70.9875 113.784 72.1159ZM99.3746 99.653C99.3746 99.6526 99.3749 99.6524 99.3752 99.6524C102.011 99.6521 104.156 97.7048 104.156 95.3128V83.6374C104.156 77.0191 100.83 70.8437 95.3046 67.2009C88.7307 62.8671 80.2068 62.8671 73.6329 67.2009C68.1073 70.8437 64.7819 77.0191 64.7819 83.6374V95.3128C64.7819 97.705 66.9266 99.6524 69.5629 99.6524C73.2304 99.6524 76.2034 96.6793 76.2034 93.0118V81.1598C76.2034 78.677 78.4273 76.659 81.1634 76.659H87.7741C90.5102 76.659 92.7341 78.6758 92.7341 81.1598V96.3333C92.7341 98.167 94.2206 99.6535 96.0544 99.6535H99.374C99.3744 99.6535 99.3746 99.6533 99.3746 99.653ZM89.0462 95.0749C89.0462 97.603 86.9968 99.6524 84.4688 99.6524C81.9407 99.6524 79.8913 97.603 79.8913 95.0749V81.1598C79.8913 80.535 80.4735 80.0055 81.1634 80.0055H87.7741C88.464 80.0055 89.0462 80.5338 89.0462 81.1598V95.0749ZM115.327 65.8736C118.217 67.774 118.866 71.4546 116.77 74.0809C115.756 75.3529 114.256 76.1895 112.548 76.4354C110.439 76.7403 107.845 78.2364 107.845 80.3679V95.314C107.845 99.5512 104.045 103 99.3759 103H69.5642C64.8947 103 61.0953 99.5512 61.0953 95.314V79.329C61.0953 77.6487 59.1072 76.5107 57.4268 76.5107C57.0832 76.5107 56.737 76.486 56.392 76.4366C54.683 76.1895 53.1839 75.3529 52.1686 74.0821C51.1533 72.8101 50.7448 71.2569 51.0171 69.7072C51.2907 68.1576 52.2114 66.7962 53.6119 65.876L80.6668 48.0388C82.9892 46.5115 86.0793 46.5374 88.3654 48.0988L115.327 65.8736Z" fill="#0464A8" fill-opacity="0.14" stroke="#0464A8" stroke-width="6" mask="url(#path-1-inside-1_1_653)"/>
</svg>
