<svg width="50" height="50" viewBox="0 0 50 50" fill="none" xmlns="http://www.w3.org/2000/svg">
<circle cx="25" cy="25" r="25" fill="#FF0000"/>
<path d="M35.5406 19.42C35.4218 18.9454 35.1799 18.5106 34.8392 18.1594C34.4986 17.8082 34.0713 17.5532 33.6006 17.42C31.8806 17 25.0006 17 25.0006 17C25.0006 17 18.1206 17 16.4006 17.46C15.9298 17.5932 15.5025 17.8482 15.1619 18.1994C14.8213 18.5506 14.5794 18.9854 14.4606 19.46C14.1458 21.2056 13.9918 22.9763 14.0006 24.75C13.9894 26.537 14.1433 28.3213 14.4606 30.08C14.5915 30.5398 14.8389 30.9581 15.1787 31.2945C15.5186 31.6308 15.9394 31.8738 16.4006 32C18.1206 32.46 25.0006 32.46 25.0006 32.46C25.0006 32.46 31.8806 32.46 33.6006 32C34.0713 31.8668 34.4986 31.6118 34.8392 31.2606C35.1799 30.9094 35.4218 30.4746 35.5406 30C35.8529 28.2676 36.0069 26.5103 36.0006 24.75C36.0118 22.963 35.8578 21.1787 35.5406 19.42Z" stroke="white" stroke-width="2" stroke-linecap="round" stroke-linejoin="round"/>
<path d="M22.7505 28.02L28.5005 24.75L22.7505 21.48V28.02Z" fill="#D9D9D9"/>
</svg>
