<svg width="19" height="19" viewBox="0 0 19 19" fill="none" xmlns="http://www.w3.org/2000/svg">
<path d="M2.46733 0C2.1583 0.0346976 1.89831 0.345578 1.89998 0.67842V2.03526C1.45921 2.03524 1.00264 2.03526 0.567359 2.03526C0.258331 2.06996 -0.00165445 2.38083 7.92822e-06 2.71366V18.3172C3.71038e-05 18.6724 0.30173 18.9956 0.63333 18.9956H11.3998C11.7314 18.9956 12.0331 18.6724 12.0331 18.3172V16.9604H13.2998C13.6314 16.9603 13.9331 16.6372 13.9331 16.282V0.67842C13.9331 0.32321 13.6314 3.61905e-05 13.2998 0C9.69065 0 6.07167 0 2.46733 0ZM16.6775 0C16.1114 0 15.5869 0.126493 15.1536 0.409887C14.7202 0.693281 14.3553 1.20229 14.3553 1.80911C14.3553 5.94776 14.3553 10.1186 14.3553 14.2467C14.3547 14.3412 14.3728 14.4357 14.4081 14.5223L16.097 18.5928C16.1948 18.8332 16.4327 19 16.6775 19C16.9223 19 17.1602 18.8332 17.258 18.5928L18.9469 14.5223C18.9822 14.4357 19.0003 14.3412 18.9997 14.2467C19.0004 10.1111 18.9997 5.95273 18.9997 1.80911C18.9997 1.20229 18.6348 0.693281 18.2014 0.409887C17.7681 0.126493 17.2436 0 16.6775 0ZM3.16662 1.35684H12.6665V15.6036H3.16662C3.16869 10.859 3.16662 6.08237 3.16662 1.35684ZM16.6775 1.35684C17.0471 1.35684 17.3645 1.45295 17.5417 1.56884C17.7189 1.68472 17.733 1.75165 17.733 1.80911V2.26139H15.622V1.80911C15.622 1.75165 15.6361 1.68472 15.8133 1.56884C15.9905 1.45295 16.3079 1.35684 16.6775 1.35684ZM4.78951 2.93981C4.4579 2.95832 4.1719 3.29834 4.18917 3.65356C4.20644 4.00878 4.52387 4.31514 4.85548 4.29664H6.33323C6.66782 4.30171 6.97556 3.97667 6.97556 3.61822C6.97556 3.25977 6.66782 2.93475 6.33323 2.93981C5.82203 2.9398 5.29525 2.93981 4.78951 2.93981ZM8.16723 2.93981C7.83562 2.95832 7.54962 3.29834 7.56689 3.65356C7.58416 4.00878 7.90159 4.31514 8.2332 4.29664H11.3998C11.7344 4.30171 12.0421 3.97667 12.0421 3.61822C12.0421 3.25977 11.7344 2.93475 11.3998 2.93981C10.325 2.93981 9.23689 2.93981 8.16723 2.93981ZM1.26665 3.39208H1.89998V16.282C1.9 16.6372 2.2017 16.9603 2.5333 16.9604H10.7665V17.6388H1.26665V3.39208ZM15.622 3.61822H17.733V4.0705H15.622V3.61822ZM4.78951 4.74891C4.4579 4.76741 4.1719 5.10745 4.18917 5.46267C4.20644 5.81789 4.52387 6.12425 4.85548 6.10575H6.33323C6.66782 6.11082 6.97556 5.78578 6.97556 5.42733C6.97556 5.06888 6.66782 4.74385 6.33323 4.74891C5.82203 4.7489 5.29525 4.74891 4.78951 4.74891ZM8.16723 4.74891C7.83562 4.76741 7.54962 5.10745 7.56689 5.46267C7.58416 5.81789 7.90159 6.12425 8.2332 6.10575H11.3998C11.7344 6.11082 12.0421 5.78578 12.0421 5.42733C12.0421 5.06888 11.7344 4.74385 11.3998 4.74891C10.325 4.74891 9.23689 4.74891 8.16723 4.74891ZM15.622 5.42733H17.733V13.116H15.622V5.42733ZM4.78951 8.59326C4.4572 8.6107 4.16993 8.95121 4.18723 9.30711C4.20454 9.66304 4.52328 9.96974 4.85548 9.9501H6.33323C6.66789 9.95531 6.97578 9.6302 6.97578 9.27167C6.97578 8.91316 6.66789 8.58808 6.33323 8.59326C5.82203 8.59325 5.29525 8.59326 4.78951 8.59326ZM8.16723 8.59326C7.83492 8.6107 7.54765 8.95121 7.56495 9.30711C7.58226 9.66304 7.901 9.96974 8.2332 9.9501H11.3998C11.7345 9.95531 12.0424 9.6302 12.0424 9.27167C12.0424 8.91316 11.7345 8.58808 11.3998 8.59326C10.325 8.59326 9.23689 8.59326 8.16723 8.59326ZM4.78951 10.4024C4.4572 10.4198 4.16993 10.7603 4.18723 11.1162C4.20454 11.4722 4.52328 11.7788 4.85548 11.7592H6.33323C6.66789 11.7644 6.97578 11.4393 6.97578 11.0808C6.97578 10.7223 6.66789 10.3972 6.33323 10.4024C5.82203 10.4024 5.29525 10.4024 4.78951 10.4024ZM8.16723 10.4024C7.83492 10.4198 7.54765 10.7603 7.56495 11.1162C7.58226 11.4722 7.901 11.7788 8.2332 11.7592H11.3998C11.7345 11.7644 12.0424 11.4393 12.0424 11.0808C12.0424 10.7223 11.7345 10.3972 11.3998 10.4024C10.325 10.4024 9.23689 10.4024 8.16723 10.4024ZM15.7803 14.4729H17.5747L16.6775 16.6424L15.7803 14.4729Z" fill="#0464A8"/>
</svg>
