<svg xmlns="http://www.w3.org/2000/svg" width="10.524" height="11.39" viewBox="0 0 10.524 11.39">
  <g id="Group_13957" data-name="Group 13957" transform="translate(0.202 0.201)">
    <path id="Path_31796" data-name="Path 31796" d="M-4705.491,6933.348a.626.626,0,0,0-.227-.055.528.528,0,0,0-.214.055l-2.937,1.887a.6.6,0,0,0-.2.184.44.44,0,0,0-.041.242v2.768a.93.93,0,0,0,.057.327.541.541,0,0,0,.185.212l2.937,1.773a.539.539,0,0,0,.222.062.506.506,0,0,0,.218-.062l3.007-1.773a.946.946,0,0,0,.208-.246.788.788,0,0,0,.077-.293v-2.768a.537.537,0,0,0-.034-.239.535.535,0,0,0-.151-.187Z" transform="translate(4710.714 -6931.551)" fill="#2da195"/>
    <path id="Path_31797" data-name="Path 31797" d="M-4703.812,6933.373a.9.9,0,0,0-.33-.081.761.761,0,0,0-.314.081l-4.3,2.762a.871.871,0,0,0-.295.268.645.645,0,0,0-.06.354v4.05a1.369,1.369,0,0,0,.083.479.79.79,0,0,0,.271.311l4.3,2.6a.8.8,0,0,0,.325.089.756.756,0,0,0,.319-.089l4.4-2.6a1.387,1.387,0,0,0,.3-.359,1.162,1.162,0,0,0,.112-.431v-4.05a.79.79,0,0,0-.05-.35.8.8,0,0,0-.22-.272Z" transform="translate(4709.112 -6933.292)" fill="none" stroke="#2da195" stroke-width="0.4"/>
  </g>
</svg>
