<svg xmlns="http://www.w3.org/2000/svg" width="20.094" height="21.211" viewBox="0 0 20.094 21.211">
  <path id="_10f75cd8d9bd946f7ca3e58fc45fb19d" data-name="10f75cd8d9bd946f7ca3e58fc45fb19d" d="M6.69,18.865V15.783a1.433,1.433,0,0,1,1.431-1.426h2.9a1.433,1.433,0,0,1,1.441,1.426h0v3.091A1.231,1.231,0,0,0,13.671,20.1H15.6a3.473,3.473,0,0,0,3.49-3.455h0V7.877a2.451,2.451,0,0,0-.967-1.914L11.515.689a3.2,3.2,0,0,0-3.964,0L.967,5.972A2.432,2.432,0,0,0,0,7.886v8.758A3.473,3.473,0,0,0,3.49,20.1H5.424a1.241,1.241,0,0,0,1.247-1.235h0" transform="translate(0.5 0.611)" fill="none" stroke="#fff" stroke-linecap="round" stroke-linejoin="round" stroke-width="1" fill-rule="evenodd"/>
</svg>
