<svg xmlns="http://www.w3.org/2000/svg" width="24" height="24" viewBox="0 0 24 24">
  <g id="c6a892f20758d6a69d2b950c731bf2af" transform="translate(0 -0.064)">
    <rect id="Rectangle_5373" data-name="Rectangle 5373" width="24" height="24" transform="translate(0 0.064)" fill="none"/>
    <path id="Path_31801" data-name="Path 31801" d="M42.4,38.625a6.606,6.606,0,1,1,13.211.083v.653a12.376,12.376,0,0,0,1.3,6.252.736.736,0,0,1-.633,1.108H41.739a.736.736,0,0,1-.633-1.108,12.371,12.371,0,0,0,1.3-6.252Zm3.661,8.1v.736a2.944,2.944,0,1,0,5.888,0v-.736" transform="translate(-36.794 -29.009)" fill="none" stroke="#fff" stroke-linecap="round" stroke-linejoin="round" stroke-width="1"/>
  </g>
</svg>
