<svg id="_409fc64b8c6f9a1be442210df3a4174f" data-name="409fc64b8c6f9a1be442210df3a4174f" xmlns="http://www.w3.org/2000/svg" width="25.541" height="21.936" viewBox="0 0 25.541 21.936">
  <path id="Path_31804" data-name="Path 31804" d="M25.264,23.936H2.277A1.25,1.25,0,0,1,1,22.717V17.843a.416.416,0,0,1,.426-.406.416.416,0,0,1,.426.406v4.875a.418.418,0,0,0,.426.406H25.264a.418.418,0,0,0,.426-.406V17.843a.426.426,0,0,1,.851,0v4.875A1.25,1.25,0,0,1,25.264,23.936ZM18.453,5.25a.416.416,0,0,1-.426-.406V3.219a.418.418,0,0,0-.426-.406H9.939a.418.418,0,0,0-.426.406V4.844a.426.426,0,0,1-.851,0V3.219A1.25,1.25,0,0,1,9.939,2H17.6a1.25,1.25,0,0,1,1.277,1.219V4.844A.416.416,0,0,1,18.453,5.25Zm5.108,12.187h-1.7a.407.407,0,1,1,0-.812h1.7a2.083,2.083,0,0,0,2.128-2.031V6.875H3.128a.407.407,0,1,1,0-.812H26.115a.416.416,0,0,1,.426.406v8.124A2.917,2.917,0,0,1,23.561,17.437Z" transform="translate(-1 -2)" fill="#fff"/>
  <path id="Path_31805" data-name="Path 31805" d="M5.843,17.72H4.082A2.905,2.905,0,0,1,1,15.04V7.383A.415.415,0,0,1,1.44,7a.415.415,0,0,1,.44.383V15.04a2.075,2.075,0,0,0,2.2,1.914H5.843a.387.387,0,1,1,0,.766Zm11.446,0H11.125a.387.387,0,1,1,0-.766h6.163a.387.387,0,1,1,0,.766Zm-8.8,1.531A1.245,1.245,0,0,1,7.163,18.1v-2.3a.415.415,0,0,1,.44-.383H9.365a.415.415,0,0,1,.44.383v2.3A1.245,1.245,0,0,1,8.484,19.251Zm-.44-3.063V18.1a.445.445,0,0,0,.88,0V16.188ZM19.93,19.251A1.245,1.245,0,0,1,18.61,18.1v-2.3a.415.415,0,0,1,.44-.383h1.761a.415.415,0,0,1,.44.383v2.3A1.245,1.245,0,0,1,19.93,19.251Zm-.44-3.063V18.1a.445.445,0,0,0,.88,0V16.188Z" transform="translate(-1 -2.598)" fill="#fff"/>
</svg>
