<svg xmlns="http://www.w3.org/2000/svg" width="25.128" height="18.902" viewBox="0 0 25.128 18.902">
  <g id="Group_13959" data-name="Group 13959" transform="translate(-0.458 -0.967)">
    <g id="e41fcc0c6fa773c02ff6b3f04933866c" transform="translate(1.208 0.967)">
      <path id="Path_31798" data-name="Path 31798" d="M9.907,4H8.726A4.726,4.726,0,0,0,4,8.726V9.907a.835.835,0,0,0,1.181,0V8.726A3.544,3.544,0,0,1,8.726,5.181H9.907A.835.835,0,0,0,9.907,4Zm0,17.721H8.726a3.544,3.544,0,0,1-3.544-3.544V17A.835.835,0,0,0,4,17v1.181A4.726,4.726,0,0,0,8.726,22.9H9.907A.835.835,0,0,0,9.907,21.721ZM17,22.9a.835.835,0,0,1,0-1.181h1.181a3.544,3.544,0,0,0,3.544-3.544V17A.835.835,0,0,1,22.9,17v1.181A4.726,4.726,0,0,1,18.177,22.9ZM17,5.181A.835.835,0,0,1,17,4h1.181A4.726,4.726,0,0,1,22.9,8.726V9.907a.835.835,0,0,1-1.181,0V8.726a3.544,3.544,0,0,0-3.544-3.544Z" transform="translate(-1.637 -4)" fill="#fff"/>
      <path id="Path_31799" data-name="Path 31799" d="M7,9.363A2.363,2.363,0,0,1,9.363,7h7.088a2.363,2.363,0,0,1,2.363,2.363v7.088a2.363,2.363,0,0,1-2.363,2.363H9.363A2.363,2.363,0,0,1,7,16.451Z" transform="translate(-1.093 -3.456)" fill="#fff" opacity="0.1"/>
      <path id="Path_31800" data-name="Path 31800" d="M2,12H25.628" transform="translate(-2 -2.549)" fill="none" stroke="#fff" stroke-linecap="round" stroke-width="1.5"/>
    </g>
  </g>
</svg>
