<svg xmlns="http://www.w3.org/2000/svg" width="33.941" height="35.248" viewBox="0 0 33.941 35.248">
  <g id="Group_14077" data-name="Group 14077" transform="translate(-11.775 -30.083)">
    <g id="e9e11140b428e8129abeecee81e8eacc" transform="translate(11.775 30.083)">
      <path id="Path_31780" data-name="Path 31780" d="M0,0H33.941V33.941H0Z" fill="none"/>
      <path id="Path_31781" data-name="Path 31781" d="M25.223,4.831a1.409,1.409,0,0,0-1.994,0L7.828,20.218V12.312a1.414,1.414,0,1,0-2.828,0V23.626A1.418,1.418,0,0,0,6.414,25.04H17.728a1.414,1.414,0,0,0,0-2.828H9.823l15.4-15.4A1.417,1.417,0,0,0,25.223,4.831Z" transform="translate(2.071 1.83)" fill="#fff"/>
    </g>
    <rect id="Rectangle_5377" data-name="Rectangle 5377" width="26.132" height="2.613" rx="1" transform="translate(15.679 62.718)" fill="#fff"/>
  </g>
</svg>
