<svg xmlns="http://www.w3.org/2000/svg" width="24.773" height="24.773" viewBox="0 0 24.773 24.773">
  <g id="Group_13965" data-name="Group 13965" transform="translate(0.5 0.5)">
    <path id="Path_4" data-name="Path 4" d="M20.723,17.111A3.611,3.611,0,1,1,17.111,13.5,3.611,3.611,0,0,1,20.723,17.111Z" transform="translate(-5.225 -5.225)" fill="none" stroke="#fff" stroke-linecap="round" stroke-linejoin="round" stroke-width="1"/>
    <path id="Path_5" data-name="Path 5" d="M21.383,16.628a1.783,1.783,0,0,0,.357,1.967l.065.065a2.162,2.162,0,1,1-3.058,3.058l-.065-.065a1.8,1.8,0,0,0-3.047,1.275v.184a2.161,2.161,0,1,1-4.322,0v-.1a1.783,1.783,0,0,0-1.167-1.632,1.783,1.783,0,0,0-1.967.357l-.065.065a2.162,2.162,0,1,1-3.058-3.058l.065-.065a1.8,1.8,0,0,0-1.275-3.047H3.661a2.161,2.161,0,1,1,0-4.322h.1A1.783,1.783,0,0,0,5.39,10.145a1.783,1.783,0,0,0-.357-1.967l-.065-.065A2.162,2.162,0,1,1,8.027,5.055l.065.065a1.783,1.783,0,0,0,1.967.357h.086a1.783,1.783,0,0,0,1.081-1.632V3.661a2.161,2.161,0,0,1,4.322,0v.1a1.8,1.8,0,0,0,3.047,1.275l.065-.065a2.162,2.162,0,1,1,3.058,3.058l-.065.065a1.783,1.783,0,0,0-.357,1.967v.086a1.783,1.783,0,0,0,1.632,1.081h.184a2.161,2.161,0,1,1,0,4.322h-.1a1.783,1.783,0,0,0-1.632,1.081Z" transform="translate(-1.5 -1.5)" fill="none" stroke="#fff" stroke-linecap="round" stroke-linejoin="round" stroke-width="1"/>
  </g>
</svg>
