<svg id="Group_14051" data-name="Group 14051" xmlns="http://www.w3.org/2000/svg" xmlns:xlink="http://www.w3.org/1999/xlink" width="50.024" height="54.322" viewBox="0 0 50.024 54.322">
  <defs>
    <linearGradient id="linear-gradient" x1="0.5" y1="-0.113" x2="0.5" y2="1" gradientUnits="objectBoundingBox">
      <stop offset="0" stop-color="#fea44b"/>
      <stop offset="0.402" stop-color="#fe923f"/>
      <stop offset="1" stop-color="#ff772f"/>
    </linearGradient>
  </defs>
  <path id="Path_31796" data-name="Path 31796" d="M-4682.915,6933.688a4.478,4.478,0,0,0-1.633-.4,3.807,3.807,0,0,0-1.549.4l-21.248,13.652a4.262,4.262,0,0,0-1.452,1.324,3.126,3.126,0,0,0-.293,1.755v20.016a6.638,6.638,0,0,0,.413,2.369,3.869,3.869,0,0,0,1.332,1.532l21.248,12.831a3.893,3.893,0,0,0,1.608.447,3.659,3.659,0,0,0,1.574-.447l21.761-12.831a6.774,6.774,0,0,0,1.5-1.777,5.672,5.672,0,0,0,.558-2.125V6950.42a4.057,4.057,0,0,0-.243-1.729,3.976,3.976,0,0,0-1.092-1.351Z" transform="translate(4709.112 -6933.293)" fill="url(#linear-gradient)"/>
  <path id="_80f896fd005bb1c6fb60792ef11e005d" data-name="80f896fd005bb1c6fb60792ef11e005d" d="M4.669,12.935a.84.84,0,0,0,0-1.188l-1.8-1.8H17.642a.84.84,0,0,0,0-1.68H2.865L4.792,6.335A.84.84,0,1,0,3.6,5.147L.245,8.506a.848.848,0,0,0,0,1.193l3.236,3.236a.838.838,0,0,0,1.188,0ZM26.638,3.482,23.4.246a.84.84,0,1,0-1.188,1.188l1.8,1.8H9.241a.84.84,0,0,0,0,1.68H24.018L22.091,6.846a.84.84,0,1,0,1.188,1.188l3.359-3.359a.848.848,0,0,0,0-1.193Z" transform="translate(18.421 40.603) rotate(-90)" fill="#fff"/>
</svg>
