<svg xmlns="http://www.w3.org/2000/svg" width="23.751" height="20.1" viewBox="0 0 23.751 20.1">
  <path id="Path_31802" data-name="Path 31802" d="M25.756,9.278H24.519V6.685a.5.5,0,0,0-.495-.495H4.539A2.044,2.044,0,0,0,2.5,8.229V24.251A2.044,2.044,0,0,0,4.539,26.29H25.756a.5.5,0,0,0,.495-.495V9.772A.5.5,0,0,0,25.756,9.278ZM4.539,7.18H23.53v2.1H4.539a1.049,1.049,0,0,1,0-2.1Zm0,18.12A1.049,1.049,0,0,1,3.49,24.251V9.965a1.979,1.979,0,0,0,1.049.3H25.262v4.676H18.5a2.776,2.776,0,1,0,0,5.552h6.764v4.8Zm20.723-5.794H18.5a1.786,1.786,0,1,1,0-3.573h6.764Z" transform="translate(-2.5 -6.19)" fill="#fff"/>
</svg>
